<?xml version="1.0" encoding="UTF-8" standalone="no"?>
<svg
   height="1992"
   viewBox="0 0 512 407.864"
   width="2500"
   version="1.1"
   id="svg4"
   sodipodi:docname="bootstrap-5-1.svg"
   inkscape:version="1.1.1 (3bf5ae0d25, 2021-09-20, custom)"
   xmlns:inkscape="http://www.inkscape.org/namespaces/inkscape"
   xmlns:sodipodi="http://sodipodi.sourceforge.net/DTD/sodipodi-0.dtd"
   xmlns="http://www.w3.org/2000/svg"
   xmlns:svg="http://www.w3.org/2000/svg">
  <defs
     id="defs8" />
  <sodipodi:namedview
     id="namedview6"
     pagecolor="#ffffff"
     bordercolor="#666666"
     borderopacity="1.0"
     inkscape:pageshadow="2"
     inkscape:pageopacity="0.0"
     inkscape:pagecheckerboard="0"
     showgrid="false"
     inkscape:zoom="0.34236948"
     inkscape:cx="1301.2258"
     inkscape:cy="1016.4457"
     inkscape:window-width="1920"
     inkscape:window-height="1080"
     inkscape:window-x="0"
     inkscape:window-y="0"
     inkscape:window-maximized="1"
     inkscape:current-layer="svg4" />
  <path
     d="m106.344 0c-29.214 0-50.831 25.57-49.863 53.3.929 26.641-.278 61.145-8.964 89.283-8.717 28.217-23.449 46.098-47.517 48.393v25.912c24.068 2.3 38.8 20.172 47.516 48.393 8.687 28.138 9.893 62.642 8.964 89.283-.968 27.726 20.649 53.3 49.868 53.3h299.347c29.214 0 50.827-25.57 49.859-53.3-.929-26.641.278-61.145 8.964-89.283 8.717-28.221 23.413-46.1 47.482-48.393v-25.912c-24.068-2.3-38.764-20.172-47.482-48.393-8.687-28.134-9.893-62.642-8.964-89.283.968-27.726-20.645-53.3-49.859-53.3h-299.355zm240.775 251.067c0 38.183-28.481 61.34-75.746 61.34h-80.458a8.678 8.678 0 0 1 -8.678-8.678v-199.593a8.678 8.678 0 0 1 8.678-8.678h80c39.411 0 65.276 21.348 65.276 54.124 0 23.005-17.4 43.6-39.567 47.208v1.2c30.176 3.31 50.495 24.21 50.495 53.077zm-84.519-128.1h-45.876v64.8h38.639c29.87 0 46.34-12.028 46.34-33.527-.003-20.148-14.163-31.273-39.103-31.273zm-45.876 90.511v71.411h47.564c31.1 0 47.573-12.479 47.573-35.931s-16.935-35.484-49.573-35.484h-45.564z"
     fill="#7952b3"
     fill-rule="evenodd"
     id="path2"
     style="fill:#000000" />
  <path
     style="fill:#00ff00;stroke-width:0.730205"
     d="m 925.90029,1524.9066 c -16.71966,-2.9108 -31.28473,-16.7555 -34.73079,-33.013 -0.87196,-4.1137 -1.02579,-71.2823 -1.03659,-452.6289 l -0.0127,-447.79842 355.79259,0.0109 355.7925,0.0109 4.9036,8.20393 c 10.4617,17.50296 19.698,39.16707 25.0966,58.86483 9.0973,33.19353 11.7962,72.17032 7.186,103.77752 -10.9981,75.40098 -59.6883,143.21704 -127.3666,177.39695 -18.3761,9.28057 -32.9657,14.54941 -51.5462,18.61527 -4.7827,1.04654 -9.435,2.06675 -10.3387,2.26712 -1.4051,0.31159 -1.6429,0.83789 -1.6429,3.63633 0,2.8756 0.1929,3.27202 1.5923,3.27202 0.8759,0 7.037,0.83769 13.6914,1.86154 62.1848,9.56772 115.7315,34.81101 156.0395,73.56081 59.7472,57.4376 84.996,138.9222 71.7722,231.629 -8.6398,60.57 -33.4778,111.4075 -74.39,152.2589 -22.7303,22.6965 -46.1733,39.212 -77.7949,54.8062 -47.4152,23.383 -97.5699,36.0853 -166.1217,42.0722 -12.9639,1.1322 -33.5285,1.2557 -229.6495,1.3787 -118.4758,0.074 -216.2321,-0.01 -217.23614,-0.1827 z m 389.19941,-133.8845 c 74.3732,-3.8638 127.0145,-22.0026 162.0115,-55.825 17.6611,-17.0682 29.2551,-35.5571 36.8856,-58.821 11.2471,-34.29 12.1368,-76.9418 2.3452,-112.4289 -6.9824,-25.3059 -19.4545,-46.3761 -37.8758,-63.987 -31.095,-29.727 -76.9384,-47.7533 -138.9046,-54.6194 -24.6314,-2.7293 -29.3413,-2.8237 -156.0814,-3.1306 l -125.4128,-0.3036 v 174.9323 174.9324 l 121.3967,-0.01 c 72.0473,0 127.1849,-0.3055 135.6356,-0.7445 z m -23.0015,-475.54431 c 48.3017,-5.49264 82.8317,-15.74172 111.4598,-33.08316 21.6114,-13.09106 39.2642,-30.88499 51.194,-51.60327 16.7713,-29.12665 22.8601,-71.23242 15.8857,-109.85515 -11.4533,-63.42624 -57.3207,-103.52251 -133.0178,-116.28129 -24.0071,-4.0464 -20.2572,-3.94401 -154.8699,-4.22863 l -124.6826,-0.26361 v 158.51801 158.51803 l 111.904,-0.27922 c 96.2993,-0.24028 113.3295,-0.44132 122.1268,-1.44171 z"
     id="path3616"
     transform="matrix(0.2048,0,0,0.2048,0,-0.0488)" />
  <path
     style="fill:#00ff00;stroke-width:0.730205"
     d="m 890.13291,548.20161 c 0.01,-34.29485 0.22496,-44.26614 1.03659,-48.09517 2.59066,-12.222 11.78889,-23.76901 23.16405,-29.07904 3.34961,-1.56363 8.03996,-3.1992 10.42299,-3.6346 5.69273,-1.0401 404.66286,-1.09263 423.20236,-0.0557 84.6587,4.73492 151.7807,27.79352 204.6152,70.29206 17.1256,13.77531 37.0532,35.45697 47.636,51.82907 l 1.298,2.00807 H 1245.8142 890.12024 Z"
     id="path3914"
     transform="matrix(0.2048,0,0,0.2048,0,-0.0488)" />
</svg>
