<?xml version="1.0" encoding="UTF-8" standalone="no"?>
<svg
   width="32"
   height="32"
   viewBox="0 0 32 32"
   version="1.1"
   id="svg65"
   sodipodi:docname="hackerrank_logo_icon_145206.svg"
   inkscape:version="1.1.1 (3bf5ae0d25, 2021-09-20, custom)"
   xmlns:inkscape="http://www.inkscape.org/namespaces/inkscape"
   xmlns:sodipodi="http://sodipodi.sourceforge.net/DTD/sodipodi-0.dtd"
   xmlns="http://www.w3.org/2000/svg"
   xmlns:svg="http://www.w3.org/2000/svg">
  <defs
     id="defs69" />
  <sodipodi:namedview
     id="namedview67"
     pagecolor="#ffffff"
     bordercolor="#666666"
     borderopacity="1.0"
     inkscape:pageshadow="2"
     inkscape:pageopacity="0.0"
     inkscape:pagecheckerboard="0"
     showgrid="false"
     inkscape:zoom="27.25"
     inkscape:cx="7.1192661"
     inkscape:cy="16"
     inkscape:window-width="1721"
     inkscape:window-height="890"
     inkscape:window-x="107"
     inkscape:window-y="141"
     inkscape:window-maximized="0"
     inkscape:current-layer="svg65" />
  <path
     d="M16 0c1.714 0 13 6.516 13.854 8 0.859 1.484 0.859 14.516 0 16s-12.141 8-13.854 8c-1.714 0-13-6.516-13.859-8-0.854-1.484-0.854-14.516 0-16 0.859-1.484 12.146-8 13.859-8zM19.063 9.068c-0.193 0-0.349 0.151-0.349 0.344v5.167h-5.427v-5.37h0.932c0.188 0 0.339-0.151 0.339-0.344 0-0.125-0.068-0.234-0.161-0.292l-2.099-2.010c-0.063-0.089-0.188-0.146-0.302-0.146-0.109 0-0.214 0.057-0.276 0.141l-2.24 2.016c-0.094 0.063-0.161 0.167-0.161 0.292 0 0.188 0.151 0.344 0.344 0.344h0.938l0.010 13.38c0 0.193 0.146 0.344 0.339 0.344h1.99c0.188 0 0.344-0.151 0.344-0.344v-5.339h5.432v5.536h-0.932c-0.193 0-0.344 0.156-0.344 0.344 0 0.125 0.068 0.234 0.161 0.292l2.104 2.016c0.057 0.083 0.188 0.146 0.302 0.146s0.208-0.063 0.276-0.146l2.24-2.016c0.094-0.057 0.161-0.167 0.161-0.292 0-0.188-0.156-0.344-0.344-0.344h-0.938l-0.010-13.375c0-0.198-0.151-0.349-0.339-0.349h-1.99z"
     id="path63"
     style="fill:#73e605;fill-opacity:1" />
</svg>
