<?xml version="1.0" encoding="UTF-8" standalone="no"?>
<svg
   width="1771"
   height="2500"
   viewBox="74.634 0 362.733 512"
   version="1.1"
   id="svg16"
   sodipodi:docname="html5-2.svg"
   inkscape:version="1.1.1 (3bf5ae0d25, 2021-09-20, custom)"
   xmlns:inkscape="http://www.inkscape.org/namespaces/inkscape"
   xmlns:sodipodi="http://sodipodi.sourceforge.net/DTD/sodipodi-0.dtd"
   xmlns="http://www.w3.org/2000/svg"
   xmlns:svg="http://www.w3.org/2000/svg">
  <defs
     id="defs20" />
  <sodipodi:namedview
     id="namedview18"
     pagecolor="#ffffff"
     bordercolor="#666666"
     borderopacity="1.0"
     inkscape:pageshadow="2"
     inkscape:pageopacity="0.0"
     inkscape:pagecheckerboard="0"
     showgrid="false"
     inkscape:zoom="0.19289873"
     inkscape:cx="-360.29268"
     inkscape:cy="637.64028"
     inkscape:window-width="1920"
     inkscape:window-height="1080"
     inkscape:window-x="0"
     inkscape:window-y="0"
     inkscape:window-maximized="1"
     inkscape:current-layer="svg16" />
  <path
     d="M107.644 470.877L74.634 100.62h362.733l-33.046 370.199L255.778 512z"
     id="path2" />
  <path
     d="M256 480.522l120.03-33.276 28.24-316.352H256z"
     id="path4" />
  <g
     fill="#ebebeb"
     id="g8">
    <path
       d="M256 268.217h-60.09l-4.15-46.501H256v-45.411H142.132l1.087 12.183 11.161 125.139H256zM256 386.153l-.198.053-50.575-13.656-3.233-36.217h-45.585l6.362 71.301 93.02 25.823.209-.058z"
       id="path6" />
  </g>
  <path
     d="M108.382 0h23.077v22.8h21.11V0h23.078v69.044H152.57v-23.12h-21.11v23.12h-23.076V0h-.002zM205.994 22.896h-20.315V0h63.72v22.896h-20.325v46.148h-23.078l-.002-46.148zM259.511 0h24.062l14.802 24.26L313.163 0h24.072v69.044h-22.982V34.822l-15.877 24.549h-.396l-15.889-24.549v34.222h-22.579V0zM348.72 0h23.084v46.222h32.453v22.822H348.72V0z"
     id="path10"
     style="fill:#00ff00" />
  <g
     fill="#fff"
     id="g14">
    <path
       d="M255.844 268.217v45.41h55.917l-5.271 58.894-50.646 13.67v47.244l93.093-25.801.683-7.672 10.671-119.551 1.108-12.194h-12.237zM255.844 176.305V221.716h109.687l.911-10.207 2.069-23.021 1.086-12.183z"
       id="path12" />
  </g>
  <path
     style="fill:#00ff00;stroke-width:5.18407"
     d="m 886.47551,1998.4579 c 0,-61.3015 1.14008,-111.4574 2.53352,-111.4574 6.916,0 239.02427,-64.0088 242.14097,-66.7755 1.9884,-1.7652 8.404,-58.0309 14.257,-125.035 5.8529,-67.0041 11.9506,-131.7401 13.5505,-143.8579 l 2.9089,-22.0322 H 1024.1709 886.47551 V 1420.4344 1311.569 h 254.01929 254.0193 v 15.7282 c 0,16.3972 -57.2107,660.4084 -58.7427,661.2562 -4.0287,2.2294 -439.76846,121.362 -443.89434,121.362 -3.57853,0 -5.40155,-37.6168 -5.40155,-111.4575 z"
     id="path1554"
     transform="matrix(0.20481818,0,0,0.20481818,74.634,-0.02272727)" />
  <path
     style="fill:#00ff00;stroke-width:5.18407"
     d="m 391.69271,1522.8198 c -1.08405,-3.5641 -13.88553,-144.1171 -28.44774,-312.3401 -14.56221,-168.223 -27.80408,-314.60807 -29.42637,-325.30021 l -2.94963,-19.44025 H 606.08021 881.29144 V 972.01262 1078.286 H 725.76942 c -153.89289,0 -155.52202,0.1126 -155.52202,10.7469 0,15.4348 15.32599,185.6399 18.52101,205.6879 l 2.68507,16.8482 h 144.91898 144.91898 v 108.8654 108.8655 H 637.47758 c -190.54385,0 -244.2445,-1.4159 -245.78487,-6.4801 z"
     id="path1593"
     transform="matrix(0.20481818,0,0,0.20481818,74.634,-0.02272727)" />
  <path
     style="fill:#00ff00;stroke-width:5.18407"
     d="M 886.47551,972.01262 V 865.73924 h 275.49409 275.494 l -3.0429,29.80839 c -1.6736,16.39461 -5.934,64.21763 -9.4675,106.27337 l -6.4245,76.465 H 1152.5021 886.47551 Z"
     id="path1632"
     transform="matrix(0.20481818,0,0,0.20481818,74.634,-0.02272727)" />
  <path
     style="fill:#00ff00;stroke-width:5.18407"
     d="m 648.02278,2048.3423 -215.12442,-60.4001 -13.89943,-150.2641 c -7.64469,-82.6453 -14.06644,-160.1787 -14.27056,-172.2965 l -0.37112,-22.0323 h 107.88023 107.88024 l 7.46526,88.9208 7.46527,88.9207 108.86541,29.4937 c 59.87598,16.2215 115.2807,31.0731 123.1216,33.0036 l 14.25618,3.5099 v 111.3587 c 0,102.8233 -0.69536,111.3137 -9.07212,110.7722 -4.98966,-0.3225 -105.87811,-27.7665 -224.19654,-60.9866 z"
     id="path1671"
     transform="matrix(0.20481818,0,0,0.20481818,74.634,-0.02272727)" />
  <path
     style="fill:#00ff00;stroke-width:1.83284"
     d="m 884.29171,1420.4545 c 0,-60.9879 0.23084,-85.9375 0.51298,-55.4435 0.28215,30.4939 0.28215,80.3931 0,110.8871 -0.28214,30.4939 -0.51298,5.5443 -0.51298,-55.4436 z"
     id="path1858"
     transform="matrix(0.20481818,0,0,0.20481818,74.634,-0.02272727)" />
  <path
     style="fill:#00ff00;stroke-width:1.83284"
     d="m 890.07997,2099.9817 c -2.08581,-13.9447 -3.53961,-131.3981 -2.13034,-172.1118 l 1.37378,-39.6886 15.8405,-3.9544 c 40.57742,-10.1297 225.46919,-61.5365 227.06529,-63.1326 1.5447,-1.5446 8.6159,-67.3028 16.9676,-157.7878 5.0243,-54.4355 9.9402,-105.1595 10.9243,-112.72 0.984,-7.5605 1.8146,-15.6021 1.8458,-17.8702 l 0.057,-4.1239 H 1024.5601 887.09677 v -108.1379 -108.1378 h 252.93253 252.9326 v 13.4871 c 0,18.0463 -17.4664,221.6293 -43.1871,503.3751 -6.5799,72.0766 -12.4524,136.5447 -13.0499,143.2624 -0.5975,6.7178 -1.6138,13.0674 -2.2583,14.1103 -1.3451,2.1763 -27.6107,9.5967 -224.6792,63.475 -171.62678,46.9225 -212.06105,57.7447 -215.74795,57.7447 -1.88278,0 -3.17442,-2.5411 -3.95948,-7.7896 z"
     id="path1897"
     transform="matrix(0.20481818,0,0,0.20481818,74.634,-0.02272727)" />
  <path
     style="fill:#00ff00;stroke-width:1.83284"
     d="m 890.07196,2099.9817 c -2.06527,-13.7131 -3.54286,-134.7629 -2.12324,-173.9442 l 1.37158,-37.8555 15.84205,-3.9548 c 38.42813,-9.5931 225.52535,-61.6002 227.04275,-63.1106 1.4879,-1.4812 8.9826,-71.3434 16.9295,-157.8101 5.0957,-55.4436 10.0803,-106.8458 11.0769,-114.2272 0.9966,-7.3815 1.812,-15.0107 1.812,-16.9539 0,-3.4574 -2.942,-3.533 -137.4634,-3.533 H 887.09677 v -108.1379 -108.1378 h 252.93253 252.9326 v 13.4871 c 0,7.4178 -2.4838,42.6772 -5.5195,78.3541 -16.412,192.8786 -50.648,573.4753 -52.1836,580.1169 -1.0147,4.3889 6.7825,2.0161 -135.662,41.2858 -142.0057,39.1487 -301.88042,82.2107 -305.22113,82.2107 -2.27708,0 -3.45038,-2.1237 -4.30371,-7.7896 z"
     id="path1936"
     transform="matrix(0.20481818,0,0,0.20481818,74.634,-0.02272727)" />
  <path
     style="fill:#00ff00;stroke-width:1.83284"
     d="m 890.11958,2101.8145 c -1.96008,-11.0258 -3.55996,-141.2516 -2.18027,-177.4673 l 1.36691,-35.8801 53.4224,-14.3233 c 64.06628,-17.1769 167.15928,-45.9505 179.78498,-50.1786 7.268,-2.4338 9.3295,-4.0606 10.4199,-8.2223 2.2124,-8.4439 8.2656,-65.8113 17.1484,-162.5171 4.5834,-49.8992 9.1975,-97.2118 10.2535,-105.1391 1.056,-7.9274 1.4813,-15.5566 0.9451,-16.9539 -0.8188,-2.1339 -22.8338,-2.5404 -137.5793,-2.5404 H 887.09677 v -108.1379 -108.1378 h 252.93253 252.9326 v 13.4932 c 0,19.8775 -34.3396,415.2937 -56.0759,645.7073 -0.6809,7.2175 -1.7826,14.0039 -2.4482,15.0809 -1.2611,2.0405 -56.3753,17.6361 -226.4833,64.0875 -155.73582,42.5268 -210.22077,57.0857 -213.63734,57.0857 -2.10192,0 -3.48842,-1.9676 -4.19758,-5.9568 z"
     id="path1975"
     transform="matrix(0.20481818,0,0,0.20481818,74.634,-0.02272727)" />
  <path
     style="fill:#00ff00;stroke-width:1.83284"
     d="m 890.11211,2101.8145 c -1.94193,-10.8473 -3.56298,-144.648 -2.1728,-179.3425 l 1.36594,-34.0897 36.01086,-9.5443 c 47.0513,-12.4704 183.48089,-50.4498 196.27999,-54.6406 8.4329,-2.7611 10.1883,-4.1167 11.3496,-8.7648 2.135,-8.5448 8.1755,-65.6967 16.2724,-153.959 4.069,-44.3548 8.6636,-91.7008 10.2103,-105.2133 2.3094,-20.1756 2.3831,-24.8402 0.4125,-26.09 -1.3197,-0.837 -63.2271,-1.5344 -137.5718,-1.5499 l -135.17233,-0.028 v -108.1379 -108.1378 h 252.93253 252.9326 v 13.4554 c 0,14.206 -1.851,37.243 -16.5908,206.486 -19.3538,222.2206 -39.6715,445.4534 -41.1406,452.0159 -1.0211,4.5611 -2.1768,4.9013 -207.1147,60.9656 -170.71585,46.7022 -229.90385,62.5317 -233.81197,62.5317 -2.08535,0 -3.48016,-1.9822 -4.19172,-5.9568 z"
     id="path2014"
     transform="matrix(0.20481818,0,0,0.20481818,74.634,-0.02272727)" />
  <path
     style="fill:#00ff00;stroke-width:0.648008"
     d="m 536.22696,1528.6112 c -103.88179,-0.569 -136.53236,-1.7431 -142.87541,-5.1378 -0.68788,-0.3682 -1.41064,-1.6135 -1.60613,-2.7676 -1.39118,-8.2118 -10.70078,-110.7313 -27.90627,-307.31 C 339.08381,930.55728 334.65377,883.32807 331.39654,867.52127 l -0.36722,-1.78203 H 606.16038 881.29144 V 972.01262 1078.286 l -134.29974,0.012 c -77.35542,0.01 -139.93236,0.2791 -147.58392,0.6423 -19.35521,0.919 -26.97847,2.312 -28.53127,5.2134 -1.46957,2.7459 -0.27917,22.015 5.24208,84.8538 6.03684,68.7069 10.81858,116.1602 13.264,131.6302 0.8806,5.5707 1.60108,10.3092 1.60108,10.5301 0,0.2208 65.31925,0.4015 145.15389,0.4015 h 145.15388 v 108.8654 108.8655 l -131.3837,-0.119 c -72.26104,-0.066 -168.41739,-0.3218 -213.68078,-0.5697 z"
     id="path2164"
     transform="matrix(0.20481818,0,0,0.20481818,74.634,-0.02272727)" />
  <path
     style="fill:#00ff00;stroke-width:0.648008"
     d="m 389.45306,1529.9983 c 0,-0.6851 -13.12217,-148.363 -29.16038,-328.1732 -16.03821,-179.8102 -29.12695,-327.74887 -29.08609,-328.75268 0.10941,-2.68775 1.67724,7.56584 3.13934,20.53118 2.64858,23.48661 11.8312,125.3802 29.49116,327.2443 14.63397,167.275 22.94442,259.2847 26.24831,290.6098 0.93219,8.8383 1.47492,11.8228 2.25351,12.3921 2.50264,1.83 14.7536,3.064 42.15073,4.2456 11.27209,0.4862 87.99755,0.821 231.82501,1.0115 l 214.97679,0.2848 V 1420.4803 1311.569 l -73.71095,-0.094 c -40.54103,-0.052 -105.78738,-0.2852 -144.99189,-0.5185 -62.36324,-0.3712 -52.95915,-0.4405 75.16898,-0.5537 l 146.4499,-0.1295 v 110.4854 110.4855 H 636.83027 c -243.60621,0 -247.37721,-0.019 -247.37721,-1.2456 z"
     id="path2203"
     transform="matrix(0.20481818,0,0,0.20481818,74.634,-0.02272727)" />
  <path
     style="fill:#00ff00;stroke-width:0.204818"
     id="path2275"
     d="m 254.71771,272.03898 c -0.0229,0.46168 -0.0564,0.92285 -0.0808,1.38455 -0.0148,0.28533 -0.0237,0.57093 -0.0276,0.85663 0.0153,0.3069 -0.003,0.60977 -0.0256,0.91564 -0.0443,0.64717 -0.0873,1.29531 -0.16545,1.93945 -0.0746,0.65326 -0.17724,1.3033 -0.32343,1.94427 -0.11161,0.521 -0.12948,1.05601 -0.14489,1.58683 -0.004,0.65964 -0.0126,1.31932 0.027,1.97797 0.0548,0.90397 0.16073,1.80441 0.30407,2.69842 0.15319,1.05344 0.28179,2.11037 0.41384,3.1667 0.12889,1.03826 0.27679,2.07409 0.41445,3.11129 0.13007,1.0032 0.17647,2.01408 0.25182,3.02221 0.0626,0.80307 0.0809,1.60827 0.0859,2.41344 0.007,0.74353 0.0135,1.48693 0.0132,2.23051 -0.055,0.8105 -0.088,1.62193 -0.10556,2.43406 -0.0165,0.82099 -0.0254,1.64208 -0.0348,2.46318 -0.003,0.61323 -0.007,1.22647 -0.0116,1.83972 0.002,0.52648 -6.1e-4,1.05295 -10e-4,1.57943 10e-5,0.51619 8.1e-4,1.03237 10e-4,1.54857 0.002,0.42893 -0.006,0.85784 -0.0139,1.28669 -0.004,0.24672 -0.005,0.49351 -0.007,0.74027 0.023,0.19075 -0.0576,0.35739 -0.095,0.54105 -0.0301,0.16253 -0.0366,0.32783 -0.0394,0.49267 -0.001,0.14372 -6.1e-4,0.28742 -7e-5,0.43114 0.01,0.14798 0.0504,0.29214 0.0658,0.44087 0.0263,0.0507 -0.0161,0.13662 0.009,0.18557 0.56162,1.08136 2.20021,-0.94714 2.85911,-1.29451 0,0 -2.86452,1.14219 -2.86452,1.14219 v 0 c 0.89497,-0.46652 1.76871,-0.97627 2.68492,-1.39957 0.0437,-0.0203 0.0309,0.0921 0.0556,0.1334 0.0339,0.0566 -0.0609,-0.25074 -0.0233,-0.19652 -0.0197,-0.13565 -0.0539,-0.27032 -0.0471,-0.40812 4e-5,-0.14026 -0.001,-0.2806 0.005,-0.42076 0.008,-0.14819 0.023,-0.29606 0.0597,-0.44032 0.0473,-0.1982 0.0781,-0.39296 0.0603,-0.59815 -0.001,-0.24455 -0.002,-0.48913 -0.007,-0.73364 -0.008,-0.42411 -0.0158,-0.84831 -0.0139,-1.27253 4.1e-4,-0.5166 10e-4,-1.03319 10e-4,-1.54978 -6.2e-4,-0.52597 -0.004,-1.05193 -0.002,-1.57788 -0.005,-0.60894 -0.01,-1.21787 -0.0119,-1.82683 -0.006,-0.81477 -0.008,-1.62974 0.0147,-2.44426 0.0286,-0.81655 0.0851,-1.63136 0.11418,-2.44774 4.1e-4,-0.74761 0.0112,-1.49526 -0.001,-2.2428 -0.024,-0.80521 -0.0576,-1.61043 -0.1261,-2.41323 -0.0849,-1.00818 -0.14508,-2.01908 -0.28273,-3.02203 -0.1282,-1.03792 -0.25511,-2.0758 -0.42079,-3.10863 -0.14396,-1.06332 -0.22753,-2.13345 -0.37888,-3.19574 -0.14581,-0.88416 -0.25933,-1.77456 -0.27803,-2.67169 -0.0142,-0.65816 -0.002,-1.31688 0.0166,-1.97492 0.0204,-0.51708 0.0548,-1.03445 0.16819,-1.54099 0.12097,-0.64741 0.20571,-1.30133 0.28372,-1.95513 0.0704,-0.65388 0.13623,-1.30828 0.19832,-1.96298 0.035,-0.31839 0.0549,-0.63723 0.0487,-0.95771 -0.002,-0.27703 -0.004,-0.55411 0.004,-0.83109 0.0151,-0.45805 0.0343,-0.9191 0.12307,-1.3698 0,0 -2.75065,1.35063 -2.75065,1.35063 z" />
  <path
     style="fill:#00ff00;stroke-width:0.204818"
     id="path2277"
     d="m 257.18163,271.9862 c -0.047,-0.13704 -0.0784,-0.27866 -0.11164,-0.41949 -0.0578,-0.16836 -0.10263,-0.34028 -0.14541,-0.51294 -0.0379,-0.1229 -0.0553,-0.23899 -0.11381,-0.35414 -0.0419,-0.10335 -0.086,-0.2067 -0.12076,-0.31281 -0.0491,-0.1402 -0.0817,-0.28685 -0.10743,-0.43317 -0.029,-0.11665 -0.0756,-0.2278 -0.0977,-0.34615 -0.004,-0.0918 -0.0416,-0.17571 -0.0563,-0.26618 -0.0267,-0.0647 -0.0477,-0.12907 -0.0503,-0.1991 -0.007,-0.0608 -0.0377,-0.11474 -0.0434,-0.17701 -0.002,-0.0516 -4.1e-4,-0.10339 8.2e-4,-0.15506 -0.0314,-0.0613 -0.0364,-0.13049 -0.0591,-0.19388 -0.0751,-0.17871 -0.21148,-0.19544 -0.37877,-0.21674 -0.13716,0.009 -0.27544,0.006 -0.41102,0.03 -0.0803,0.002 -0.16447,0.004 -0.23256,0.0509 -0.88301,0.51467 -1.76602,1.02933 -2.64903,1.54402 -0.0155,0.0622 4.1e-4,0.0399 -0.0374,0.0731 0,0 2.83452,-1.17524 2.83452,-1.17524 v 0 c 0.0297,-0.0341 0.011,-0.0265 0.0562,-0.0225 -0.86397,0.50127 -1.72793,1.00256 -2.5919,1.50383 0.0736,-0.031 -10e-4,0.006 0.0576,-0.0402 0.009,-0.007 0.0217,-0.009 0.0302,-0.0164 0.01,-0.009 0.0127,-0.0236 0.0229,-0.0317 0.0233,-0.0186 0.0603,-0.0156 0.0777,-0.0445 0.059,-0.0133 0.11576,-0.0369 0.17406,-0.0501 0.0707,-0.016 0.14594,-0.0106 0.21678,-0.0266 0.0183,-0.005 0.0362,-0.0125 0.055,-0.0154 0.0771,-0.0119 0.13133,0.0281 0.0781,-0.0863 0.002,0.0164 0.0414,0.12644 0.0218,0.11652 0.003,0.0681 0.008,0.13629 0.025,0.20261 0.0147,0.0569 0.0359,0.11119 0.0406,0.16828 0.0175,0.0713 0.0422,0.13972 0.0671,0.20865 0.0244,0.0914 0.0441,0.18304 0.0671,0.2747 0.0362,0.11105 0.0796,0.21999 0.10388,0.33461 0.044,0.14831 0.0837,0.29768 0.12137,0.44775 0.0356,0.12273 0.0798,0.2422 0.12859,0.36034 0.0408,0.0963 0.0682,0.19841 0.11279,0.29338 0.0512,0.16769 0.0965,0.33773 0.13364,0.50906 0.0353,0.13952 0.0747,0.28041 0.0781,0.42505 0,0 2.70255,-1.44714 2.70255,-1.44714 z" />
  <path
     style="fill:#00ff00;stroke-width:0.204818"
     id="path2279"
     d="m 254.58954,219.54677 c 0.0631,0.14277 0.0833,0.29858 0.0953,0.45277 0.007,0.12324 0.005,0.24678 0.002,0.37012 -10e-4,0.10118 -10e-4,0.20236 -0.003,0.30354 -0.002,0.0905 -4.1e-4,0.18112 0.001,0.27167 -0.0102,0.1688 0.0886,0.28257 0.21406,0.38033 1.06944,0.38832 0.13137,0.0771 2.78798,-1.49933 0.0247,-0.0148 0.0203,-0.0541 0.0354,-0.0784 0.0122,-0.0197 0.0322,-0.0335 0.0457,-0.0523 0.0244,-0.0339 0.0666,-0.11608 0.0851,-0.15059 0.13514,-0.29938 0.1786,-0.63102 0.21581,-0.95461 0.043,-0.47035 -0.0551,-0.92472 -0.17065,-1.37696 -0.10153,-0.39478 -0.23922,-0.77833 -0.40358,-1.15093 -0.12835,-0.21926 -0.20707,-0.45996 -0.29391,-0.69704 -0.11909,-0.32304 -0.16603,-0.65955 -0.19705,-1.00051 -0.0339,-0.48833 -0.032,-0.97695 -0.0103,-1.4656 0.0483,-0.49347 0.0861,-0.98774 0.12574,-1.48196 0.0384,-0.45841 0.0635,-0.91818 0.0665,-1.37822 9e-5,-0.0799 0.004,-0.15991 2.1e-4,-0.23974 -0.002,-0.0494 -0.0461,-0.53392 -0.0491,-0.56991 -0.028,-0.33643 -0.0458,-0.67342 -0.0707,-1.01008 -0.0333,-0.46934 -0.0704,-0.93989 -0.14862,-1.40434 -0.0425,-0.25207 -0.0941,-0.5025 -0.13829,-0.75428 -0.11714,-0.60407 -0.22164,-1.20923 -0.27066,-1.82289 -0.0425,-0.56056 -0.0556,-1.12121 -0.0309,-1.68271 0.0524,-0.71736 0.17086,-1.4286 0.28974,-2.13751 0.12213,-0.74236 0.23517,-1.48622 0.34987,-2.22986 0.0962,-0.5342 0.16034,-1.0735 0.21598,-1.61324 0.0252,-0.25653 0.0523,-0.51286 0.0763,-0.76951 0,0 -2.68942,1.3539 -2.68942,1.3539 v 0 c -8e-5,0.24275 -0.004,0.48567 -0.0267,0.72758 -0.0515,0.5276 -0.11929,1.05355 -0.17216,1.58106 -0.0827,0.74559 -0.2031,1.48524 -0.34996,2.22087 -0.1118,0.71852 -0.2058,1.4402 -0.27701,2.16389 -0.0426,0.58241 -0.0585,1.16938 0.004,1.75114 0.083,0.60841 0.22202,1.20484 0.34604,1.8058 0.12889,0.70791 0.21654,1.42142 0.25489,2.14037 0.039,0.60784 0.0643,1.21801 0.0469,1.8271 -0.0169,0.4546 -0.0287,0.9095 -0.0727,1.36262 -0.0379,0.49363 -0.0603,0.98849 -0.10457,1.48173 -0.0247,0.5024 -0.0272,1.00513 0.01,1.50722 0.0245,0.37248 0.055,0.74519 0.17639,1.10112 0.0855,0.24783 0.18659,0.49077 0.32928,0.71195 0.17487,0.3433 0.31653,0.70367 0.417,1.07589 0.10412,0.432 0.16093,0.84328 0.092,1.28724 -0.0556,0.30373 -0.12583,0.61278 -0.33042,0.85454 -0.0403,0.045 -0.10963,0.13139 -0.16059,0.16439 -0.0179,0.0115 -0.0786,0.0321 -0.0601,0.0216 2.59978,-1.48682 2.70015,-2.43959 2.56694,-1.38635 0.005,0.13393 0.008,0.0976 0.007,-0.005 0.002,-0.0908 0.004,-0.18167 0.002,-0.27253 -0.002,-0.10128 -4.1e-4,-0.20256 -0.002,-0.30382 -0.005,-0.13209 -0.0111,-0.26436 -0.0299,-0.39534 -0.0277,-0.17217 -0.0722,-0.34029 -0.11031,-0.51029 0,0 -2.68662,1.47559 -2.68662,1.47559 z" />
  <path
     style="fill:#00ff00;stroke-width:0.204818"
     id="path2281"
     d="m 259.85869,217.6822 c -0.31631,0.10829 -0.65183,0.14368 -0.98301,0.17533 -0.28803,0.0272 -0.57701,0.0321 -0.86606,0.0346 -0.36339,0.003 -0.71763,-0.0827 -1.06826,-0.16811 -0.29911,-0.0973 -0.62921,-0.16687 -0.88915,-0.35297 -0.19911,-0.31462 -0.11347,-0.75787 -0.0672,-1.10233 0.0256,-0.12248 0.0512,-0.24498 0.0769,-0.36746 0,0 -2.64089,1.27872 -2.64089,1.27872 v 0 c -0.0262,0.12899 -0.0523,0.25797 -0.0785,0.38694 -0.0745,0.47092 -0.16982,1.00269 0.12776,1.41783 0.0385,0.0352 0.0729,0.0756 0.11557,0.10563 0.24032,0.16869 0.60969,0.22122 0.87662,0.33969 0.36098,0.10036 0.72408,0.19947 1.09702,0.24324 0.29216,0 0.58503,0.009 0.87667,-0.0102 0.33331,-0.0275 0.66412,-0.0751 0.99632,-0.11292 0,0 2.42618,-1.86804 2.42618,-1.86804 z" />
  <path
     style="fill:#00ff00;stroke-width:0.204818"
     id="path2283"
     d="m 257.61346,202.12523 c -0.0253,-0.01 -0.27221,0.0231 -0.2813,-0.003 -0.0655,-0.18502 -0.0909,-0.38223 -0.12182,-0.57604 -0.17947,-1.1257 -0.16249,-1.26529 -0.24374,-2.42797 -0.10586,-1.68588 -0.0474,-3.37376 -0.0359,-5.06062 -0.002,-0.91802 0.0202,-1.83614 -0.002,-2.75397 -0.0101,-0.69462 -0.0403,-1.38778 -0.0869,-2.08078 -0.0396,-0.51725 -0.0509,-1.03552 -0.0434,-1.55404 0.0176,-0.33162 -0.018,-0.66687 0.027,-0.99647 0.0372,-0.2796 0.0554,-0.55966 0.0989,-0.83848 0.0416,-0.29011 0.11091,-0.57196 0.13923,-0.86413 0.0309,-0.33203 0.0835,-0.66038 0.10468,-0.99376 0.022,-0.32298 0.0216,-0.64694 0.026,-0.9705 -5e-5,-0.32875 -0.004,-0.6575 -0.006,-0.98625 0.002,-0.30009 0.008,-0.60016 0.008,-0.90026 -0.001,-0.27476 6.1e-4,-0.54952 -4.1e-4,-0.82428 0.0159,-0.28367 -0.0175,-0.56363 -0.0495,-0.84467 -0.0218,-0.18391 -0.0302,-0.36888 -0.0324,-0.55392 -0.0328,-0.13102 -0.0555,-0.26282 -0.0651,-0.39747 -0.0406,-0.13241 -0.0762,-0.26272 -0.13175,-0.38937 -0.0277,-0.11036 -0.0714,-0.2136 -0.10802,-0.32134 -0.0498,-0.12066 -0.12027,-0.24542 -0.24912,-0.29369 -0.11386,-0.0751 -0.24086,-0.11819 -0.37349,-0.1449 -0.10575,-0.0257 -0.20807,-0.004 -0.31223,-0.0278 -0.1458,-0.0316 -0.29595,-0.0612 -0.44517,-0.05 -0.24622,0.0243 -0.47758,0.10047 -0.7115,0.17638 -1.24242,0.57401 -2.55607,1.12513 -3.54614,2.08271 -0.3898,0.42579 -0.56031,0.99675 -0.71971,1.53926 -0.31671,1.0238 -0.37131,2.09438 -0.39893,3.15765 0.004,1.22769 -0.004,2.45591 0.0199,3.68342 0.0119,0.45713 0.0174,0.91435 0.0202,1.37161 0,0 2.61086,-1.34451 2.61086,-1.34451 v 0 c -0.0362,-0.44328 -0.0702,-0.88677 -0.0891,-1.33121 -0.0441,-1.21999 -0.0502,-2.44158 -0.0234,-3.66207 0.0434,-1.0693 0.14085,-2.11294 0.51986,-3.12412 0.19566,-0.52625 0.40308,-1.06266 0.85614,-1.42341 0.80317,-0.6105 2.34456,-1.38215 -2.12505,1.18708 -0.0558,0.0321 0.11084,-0.0656 0.16747,-0.0962 0.0564,-0.0305 0.11421,-0.0582 0.17142,-0.087 0.0528,-0.0266 0.1058,-0.053 0.15871,-0.0795 0.25384,-0.13057 0.0228,-0.0242 0.275,-0.10784 0.12237,-0.0406 0.23299,-0.10099 0.36593,-0.10235 0.0451,-0.0119 0.0861,-0.0373 0.13166,-0.047 0.0757,-0.016 0.16262,0.0139 0.23886,0.0121 0.11316,0.021 0.21099,0.0753 0.33055,0.0507 0.10048,6.2e-4 0.20539,-0.002 0.29872,0.0406 0.11408,0.0832 0.0753,-0.0445 0.14104,0.10899 0.0424,0.11164 0.0742,0.22588 0.1177,0.33702 0.0412,0.0975 0.0708,0.20069 0.09,0.30454 0.0158,0.12737 0.0445,0.25241 0.0597,0.37959 0.0123,0.18971 0.0354,0.37827 0.0641,0.5662 0.0359,0.2695 0.0439,0.53806 0.0355,0.8099 -0.001,0.27489 0.001,0.54979 -2.1e-4,0.82468 -2e-4,0.29746 0.006,0.5949 0.008,0.89235 -0.001,0.32989 -0.004,0.65976 -0.006,0.98964 4.1e-4,0.31585 -0.005,0.6318 -0.0281,0.94693 -0.0312,0.3292 -0.0814,0.65596 -0.11861,0.9845 -0.0454,0.28519 -0.10814,0.56732 -0.13763,0.85508 -0.0425,0.28682 -0.075,0.57497 -0.0978,0.86402 -0.006,0.33532 0.003,0.67095 0.0133,1.00611 0.0233,0.51995 0.033,1.04078 0.0753,1.55965 0.0637,0.67725 0.12274,1.35441 0.13983,2.03497 0.0224,0.91169 0.002,1.82406 0.0326,2.73571 0.0643,1.64379 0.25072,3.28187 0.32458,4.92547 0.0212,0.42781 0.0486,0.85536 0.0634,1.28343 0.0202,0.58159 0.008,1.73678 0.0945,2.33853 10e-4,0.008 0.25657,1.3e-4 0.27798,0.008 0,0 2.48352,-1.79889 2.48352,-1.79889 z" />
  <path
     style="fill:#00ff00;stroke-width:0.204818"
     id="path2285"
     d="m 262.86489,425.63744 c -0.62785,0.0524 -1.25853,0.066 -1.88816,0.0832 -0.35701,-0.002 -0.70892,0.0462 -1.06008,-0.0415 -0.30999,-0.0774 -0.61127,-0.22161 -0.90937,-0.33465 -0.104,-0.0206 -0.20604,-0.0582 -0.312,-0.0619 -0.1117,-0.004 -0.23365,-0.0119 -0.33298,0.0394 -0.96652,0.49855 -1.907,1.04676 -2.84376,1.59922 -0.0941,0.0555 -0.16276,0.14573 -0.24222,0.22069 -0.0689,0.065 -0.28554,0.24537 -0.20286,0.1991 0.81029,-0.45338 1.59568,-0.9499 2.39352,-1.42483 0,0 -2.34995,1.89526 -2.34995,1.89526 v 0 c 0.90518,-0.53412 1.81814,-1.05524 2.71553,-1.60235 0.0734,-0.0448 0.12534,-0.11814 0.19319,-0.17099 0.0811,-0.0632 0.34338,-0.22544 0.25295,-0.17651 -0.76189,0.41214 -1.51646,0.83777 -2.26883,1.26703 -0.16074,0.0917 0.6496,-0.36314 0.54058,-0.1265 0.41814,0.14454 0.18184,0.0585 0.60798,0.22407 0.16001,0.0622 0.53434,0.21629 0.70177,0.23966 0.0111,0.002 0.74273,-0.0166 0.74815,-0.0168 0.59466,-0.009 1.19017,-0.0252 1.78464,-0.005 0,0 2.4719,-1.8066 2.4719,-1.8066 z" />
  <path
     style="fill:#00ff00;stroke-width:0.204818"
     id="path2287"
     d="m 256.51702,416.86411 c -0.29769,0.13338 -0.59115,0.27551 -0.8829,0.42132 -0.20612,0.1039 -0.41278,0.2068 -0.61721,0.31402 -0.0888,0.0471 -0.17756,0.0943 -0.26564,0.14274 -0.78843,-1.93463 -3.232,0.94438 -2.56397,1.83185 0.47296,0.62834 0.0396,-0.0354 0.54087,0.78532 -0.0277,0.12832 -0.10036,0.25479 -0.0832,0.38495 0.0322,0.24484 0.35371,0.8213 0.47119,1.02647 0.0892,0.15587 0.2665,0.2807 0.28106,0.45973 0.0124,0.15253 -0.549,0.27186 -0.57166,0.27852 0.71317,-0.42996 1.44519,-0.83007 2.1395,-1.28985 0.11105,-0.0736 -0.2529,0.0837 -0.3797,0.12445 -0.28051,0.0902 -0.6031,0.16013 -0.86262,0.30635 -0.92245,0.51974 -1.8352,1.05649 -2.7528,1.58474 -0.2245,0.15375 -0.36484,0.36797 -0.48848,0.60288 -0.12237,0.24654 -0.26013,0.48491 -0.38547,0.72983 -0.14652,0.30409 -0.28935,0.60997 -0.4392,0.91242 -0.088,0.21459 -0.21761,0.41027 -0.27333,0.63645 -0.0659,0.21799 -0.11787,0.43909 -0.17177,0.66024 -0.0535,0.22927 -0.12459,0.45416 -0.1805,0.68268 -0.20309,1.08402 -0.0605,0.22347 2.83588,-1.20399 0.0503,-0.0248 0.0284,-0.10902 0.052,-0.15982 0.0342,-0.0735 0.18315,-0.2627 0.1206,-0.21114 -0.52644,0.4339 -1.39557,0.69691 -1.52306,1.36712 -0.0788,0.41412 0.84308,-0.006 1.26461,-0.009 1.50671,0.0358 3.02718,0.15732 4.52356,-0.0801 1.17377,-0.27818 1.98075,-1.03859 3.07399,-1.76064 0.0409,-0.027 0.0845,-0.39319 0.091,-0.45009 0.014,-0.39058 0.0234,-0.78291 -0.003,-1.17305 -0.0615,-0.54641 -0.31229,-1.03622 -0.5794,-1.50767 -0.15648,-0.24277 -0.32322,-0.47899 -0.50401,-0.70433 -0.0432,-0.0539 -0.0841,-0.11009 -0.13308,-0.15881 -0.0409,-0.0407 -0.0837,-0.13432 -0.13517,-0.10821 -0.93757,0.47573 -1.82523,1.044 -2.73785,1.56598 -0.0233,1.28116 -0.44007,2.10948 1.81094,-0.26837 0.18886,-0.1995 -0.53145,0.14151 -0.80156,0.19165 -0.26719,0.0496 -0.5388,0.0715 -0.8082,0.1072 -0.83978,0.12188 -1.70938,0.0555 -2.53381,0.27595 0.0424,0.0938 -0.18431,0.005 -0.19085,0.0726 -0.003,0.0311 0.0339,0.0525 0.0526,0.0776 0.0396,0.053 0.068,0.11851 0.12223,0.15632 0.0164,0.0115 0.0606,-0.0523 0.045,-0.0398 -0.6347,0.50517 -1.2681,1.01197 -1.90214,1.51797 1.10646,0.0484 2.23109,0.2021 3.33334,0.0117 0.41187,-0.0711 0.56947,-0.14575 0.94162,-0.28261 0,0 2.28053,-1.80085 2.28053,-1.80085 v 0 c -0.35347,0.16869 -0.59027,0.2992 -0.98095,0.40274 -1.06657,0.28265 -2.1955,0.19673 -3.27228,0.0349 -1.06371,0.45826 -2.13885,0.89086 -3.19113,1.37478 -0.0995,0.0457 0.0534,0.41314 0.17106,0.4481 0.0804,0.0239 0.1503,-0.15685 0.22249,-0.11754 0.43314,-0.21304 0.85346,-0.26998 1.33079,-0.33165 0.44409,-0.0574 0.92142,-0.1071 1.36458,-0.15558 0.0261,-0.003 1.54397,-0.16637 1.58995,-0.18913 1.03993,-0.51493 2.0522,-1.09725 2.99786,-1.76981 0.10669,-0.0759 0.0215,-0.2611 0.04,-0.39069 0.0156,-0.10945 0.0285,-0.22053 0.0625,-0.32576 0.0233,-0.0723 0.0716,-0.13401 0.10737,-0.20101 -0.85806,0.45007 -1.71678,0.89886 -2.57418,1.3502 -0.027,0.0141 0.0546,-0.0502 0.0829,-0.0388 0.0593,0.0239 0.097,0.0835 0.14155,0.12934 0.19016,0.1953 0.34395,0.42105 0.4975,0.64504 0.2425,0.4414 0.44459,0.90232 0.47272,1.41277 0.019,0.37105 0.0142,0.74834 -0.053,1.11458 -0.0242,0.0796 -0.0395,0.15464 -0.0881,0.22428 -0.0191,0.0273 -0.0992,0.0877 -0.0702,0.0713 0.82927,-0.46838 1.64431,-0.9617 2.47414,-1.4291 0.0574,-0.0323 -0.098,0.0894 -0.15478,0.12273 -0.0784,0.0461 -0.16526,0.0759 -0.24789,0.11386 -1.55445,0.42166 -3.17643,0.43149 -4.77589,0.35003 -0.39223,-0.0248 -0.7998,-0.18589 -1.17668,-0.0744 -1.17705,0.34805 -2.28064,0.91136 -3.39486,1.42623 -0.0827,0.0382 -0.1019,0.15214 -0.16439,0.21848 -0.0364,0.0386 -0.17795,0.11376 -0.1291,0.0931 2.77959,-1.17658 2.57907,-0.22288 2.7822,-1.26082 0.0516,-0.22284 0.0977,-0.44714 0.16216,-0.66674 0.0604,-0.21762 0.12283,-0.43512 0.19738,-0.64831 0.0899,-0.19667 0.1754,-0.39518 0.2652,-0.59187 0.14118,-0.30253 0.28387,-0.60448 0.44083,-0.89925 0.13605,-0.24453 0.27234,-0.48925 0.41879,-0.72774 0.12956,-0.18786 0.29861,-0.33502 0.49794,-0.44751 -0.79459,0.45382 -1.58918,0.90763 -2.38377,1.36145 0.0787,-0.0442 0.15493,-0.0933 0.23618,-0.13264 0.19585,-0.0949 0.43978,-0.18014 0.64473,-0.24582 0.12897,-0.0413 0.26877,-0.0544 0.3894,-0.11599 0.98091,-0.50066 1.93899,-1.04484 2.90849,-1.56725 0.0986,-0.0934 0.23815,-0.15716 0.29587,-0.28009 0.16686,-0.3554 -0.10457,-0.54858 -0.25938,-0.823 -0.25376,-0.44978 -0.41088,-0.88821 -0.39214,-1.41191 -0.21395,-0.46965 -0.22632,-0.44247 -0.35074,-0.88689 -0.003,-0.0102 0.0145,0.0158 0.0205,0.0247 0.0106,0.0158 0.0179,0.0338 0.0291,0.0493 0.0138,0.0193 0.0655,0.0421 0.0453,0.0544 -0.85519,0.52069 -1.73421,1.00122 -2.60131,1.50183 0.0911,-0.0538 0.18245,-0.10718 0.27487,-0.15869 0.21459,-0.12009 0.43063,-0.23757 0.64911,-0.35045 0.27545,-0.14159 0.55142,-0.28318 0.83673,-0.40412 0,0 2.40046,-1.90254 2.40046,-1.90254 z" />
  <path
     style="fill:#00ff00;stroke-width:0.204818"
     id="path2289"
     d="m 251.97712,417.57379 c -0.32181,0.45988 -0.70508,0.88236 -0.96543,1.37961 -0.53346,1.01887 0.87175,1.16302 1.57148,1.49321 0.64368,0.30372 1.31302,0.54977 1.96782,0.82871 0.086,0.0366 0.18751,0.18326 0.25438,0.11796 0.7383,-0.72094 1.34922,-1.56172 2.02383,-2.34257 -2.31861,-2.42746 -2.69634,3.4416 -1.50235,3.28533 0.85007,-0.11126 1.33966,-1.07018 2.00771,-1.6075 0.55537,-0.44667 -2.3026,1.66321 -1.66965,1.3356 2.23927,-1.15896 2.68988,-1.66755 4.14471,-3.00806 0.33358,-0.27472 0.6581,-0.56086 1.00074,-0.82417 2.38961,-1.83644 -0.35265,0.51293 -0.63693,0.30622 -0.45958,-0.33416 1.35575,-1.51258 0.78753,-1.51182 -1.01768,0.002 -3.52493,0.99288 -2.65101,1.51432 0.92551,0.55225 1.96147,-0.8937 2.9422,-1.34057 -0.82653,0.63461 -1.82424,1.09362 -2.47958,1.90378 -0.20601,0.25469 0.11498,0.64532 0.15462,0.97047 0.0425,0.34864 0.0953,0.69845 0.0916,1.04963 -0.009,0.86911 -0.26501,1.72336 -0.50356,2.5497 0.44337,-0.8189 1.34334,-1.52559 1.3301,-2.45671 -0.0113,-0.79586 -0.96363,-1.26922 -1.39263,-1.93965 -0.45293,-0.70785 -0.85275,-1.44882 -1.24959,-2.18955 -0.5809,-1.08428 -1.30927,-2.63082 -1.80785,-3.78596 -0.19604,-0.4542 -0.37131,-0.91707 -0.55696,-1.37562 -0.12401,-0.34421 -0.34968,-0.66748 -0.37202,-1.03267 -0.0153,-0.24955 0.13992,-0.4854 0.26594,-0.70134 0.32497,-0.55682 1.07101,-0.99836 1.62112,-1.31725 0.20801,-0.1517 0.42915,-0.19007 0.26337,-0.47192 -0.068,-0.11562 -0.0758,-0.11017 -0.16324,-0.16289 0,0 -2.51368,1.77965 -2.51368,1.77965 v 0 c 0.0259,-0.0537 -0.0414,-0.19401 -0.0761,-0.23675 -0.0266,-0.0328 -0.0783,0.0335 -0.113,0.0576 -0.0504,0.035 -0.101,0.0696 -0.1515,0.10436 -0.68499,0.47769 -1.68255,1.26971 -1.43031,2.24343 0.091,0.35124 0.34488,0.63848 0.51733,0.95773 1.32252,2.39201 2.68075,4.76463 3.96057,7.18011 0.37607,0.7098 0.38498,1.78933 1.10757,2.14018 0.98562,0.4786 2.19132,-0.004 3.28698,-0.006 0.15673,-0.84114 0.33042,-1.69863 0.32924,-2.55846 -4.1e-4,-0.35452 -0.0593,-0.70662 -0.0792,-1.06057 -0.0199,-0.35337 0.3081,-0.99933 -0.0404,-1.06104 -0.91891,-0.16271 -1.82752,0.37897 -2.74127,0.56847 0.84829,-0.30372 1.72924,-1.29408 2.54487,-0.91119 0.72633,0.34098 -2.86099,1.45431 -2.14059,1.10098 5.4045,-2.6506 3.6128,-1.97308 0.35856,0.0176 -0.43021,0.26315 -1.4635,1.16812 -1.80083,1.45401 -0.34972,0.30649 -1.40438,0.61939 -1.04915,0.91947 2.29967,1.94259 2.35285,-7.90257 -1.55966,1.38541 -0.3752,0.89069 2.00934,-0.46332 2.64244,-1.1936 0.68881,-0.79453 -2.4448,-4.33858 -3.06752,-0.73606 0.88315,-0.25416 1.74372,-0.60687 2.64944,-0.76243 0.26474,-0.0455 -0.4207,0.47466 -0.68467,0.42497 -0.66149,-0.12455 -1.23351,-0.54774 -1.81027,-0.89474 -0.42752,-0.25721 -0.84686,-0.54619 -1.18873,-0.90958 -0.18995,-0.20191 -0.0932,-0.77843 -0.36842,-0.74562 -1.33252,0.15892 -2.55213,0.83072 -3.82819,1.24607 0,0 2.77014,-1.1699 2.77014,-1.1699 z" />
  <path
     style="fill:#00ff00;stroke-width:0.204818"
     id="path2291"
     d="m 254.06396,409.7365 c 0.14738,0.87914 0.13569,1.77619 0.13472,2.66487 -0.004,0.62392 -0.0181,1.24755 -0.0419,1.871 0.1905,0.32256 -0.96883,0.68317 -0.74386,0.48953 0.31584,-0.27185 1.44754,-0.82644 1.08383,-0.62306 -0.39011,0.21816 -0.77655,0.4428 -1.16302,0.66734 -3.3957,1.97285 -2.20974,1.20894 -4.06076,2.43802 -0.4951,0.37883 -1.01508,0.75723 -1.33434,1.30751 -0.0594,0.10235 -0.0882,0.22002 -0.14269,0.32509 -0.0527,0.10157 -0.44047,0.74163 -0.48459,0.81491 -0.21622,0.36921 -0.43325,0.74185 -0.55076,1.15655 -0.0288,0.10149 -0.16899,0.32523 -0.0647,0.30979 1.62098,-0.24019 3.06416,-1.07993 4.51141,-1.76556 2.05255,-0.96483 4.11104,-1.92203 6.21759,-2.76478 0.43765,-0.17508 0.95786,-0.20221 1.32237,-0.50108 6.77458,-5.55476 0.37593,-1.09447 2.32628,-2.44029 -0.66643,-0.89221 -0.37361,-0.56327 -1.14627,-1.34963 -0.88889,-0.90466 -1.41047,-1.74511 -2.69212,1.04271 -0.19547,0.42518 0.61847,0.71238 0.84112,1.12398 0.0974,0.18014 0.0635,0.40464 0.0952,0.60696 0.46427,-0.39981 1.483,-0.5934 1.39281,-1.19942 -0.0766,-0.51452 -1.03104,0.18106 -1.51659,0.36767 -1.776,0.6826 -4.19375,2.38788 -5.33019,3.55134 -3.46211,3.54451 0.73474,1.00605 -1.94161,2.48076 0.66726,-0.50393 1.45373,-0.88031 2.0018,-1.51184 0.11728,-0.13514 -0.18814,-0.57175 -0.3085,-0.43932 -0.59516,0.65483 -1.03187,1.45747 -1.3628,2.27813 -0.0519,0.12881 0.28961,0.17254 0.40546,0.0959 0.92707,-0.61312 1.4915,-2.12808 2.60214,-2.08501 0.84628,0.0328 -0.92098,1.42156 -1.38148,2.13234 0.45434,0.46474 0.93897,0.90168 1.36301,1.3942 0.44201,0.5134 0.84024,1.06381 1.23014,1.61782 0.86844,1.23397 1.62449,2.56121 2.28223,3.91854 0.12694,0.26198 0.24016,0.5304 0.36024,0.79558 0.0687,0.19218 0.1436,0.38221 0.206,0.5765 0.11593,0.36099 0.0715,0.75217 0.56459,0.78025 0.1014,0.006 0.24135,0.002 0.29206,-0.0868 0.40969,-0.71088 0.69527,-1.48639 1.04291,-2.22957 -0.55257,-0.63791 0.54981,-0.99433 0.43791,-1.50451 -0.12115,-0.55231 -1.06751,-0.68094 -1.45844,-0.78101 -0.52732,-0.135 -1.2364,0.0147 -1.58169,-0.40602 -0.30808,-0.37543 0.0358,-0.97065 0.0538,-1.45597 0.20355,-0.62952 0.36406,-1.27464 0.61067,-1.88858 0.44375,-1.10475 1.30731,-2.65981 1.89254,-3.70637 0.67777,-1.21203 1.38805,-2.4066 2.07949,-3.61093 0.26032,-0.49367 0.57112,-0.96901 0.7654,-1.4957 0.0293,-0.0794 0.0149,-0.18004 0.0704,-0.24392 0.066,-0.0759 0.17931,-0.0915 0.26581,-0.14292 0.10711,-0.0636 0.20973,-0.13449 0.31459,-0.20175 0.31408,-0.2363 0.67472,-0.47507 0.86198,-0.83584 0.21776,-0.41955 -0.0518,-0.0121 0.13249,-0.27892 -0.0238,0.0254 0.084,-0.19607 0.0256,-0.18004 -2.43406,0.66835 -2.21655,0.7293 -4.67215,1.80042 -1.91659,0.836 -2.67005,1.13358 -4.5486,1.90362 -0.22076,0.054 -0.43814,0.12434 -0.66226,0.16195 -0.0167,0.003 -0.0107,-0.0321 -0.0161,-0.0481 -0.72158,0.59913 -1.50501,1.13078 -2.16474,1.7974 -0.0999,0.10095 0.2823,-0.0362 0.42429,-0.0387 0.35303,-0.006 0.48442,0.0326 0.82347,0.0918 0.43885,0.11736 0.80863,0.25274 0.96338,0.70642 0.0537,0.27056 0.037,0.54948 0.0342,0.82384 0.022,0.33379 0.0753,0.66926 0.0567,1.00453 0,0 2.71779,-1.4324 2.71779,-1.4324 v 0 c -0.0411,-0.0795 -0.0224,-0.0322 -0.0371,-0.18329 -0.0246,-0.25226 -0.0393,-0.50596 -0.037,-0.75945 0.007,-0.31296 0.0199,-0.63028 -0.0899,-0.92948 -0.25267,-0.57575 -0.62058,-0.7404 -1.21144,-0.90501 -0.33045,-0.065 -0.51811,-0.10987 -0.85646,-0.14311 -0.12636,-0.0125 -0.27175,-0.0849 -0.38042,-0.0192 -5.60166,3.38392 -2.37183,1.68582 -1.21985,1.17867 0.98923,-0.42117 3.68592,-1.57131 4.62781,-1.96376 0.74907,-0.31208 1.5227,-0.56858 2.25263,-0.92309 0.43723,-0.21238 0.8226,-0.51811 1.23716,-0.7719 0.0266,-0.0164 -0.12079,0.12406 -0.0491,0.0797 -0.16,0.42781 -0.5968,0.67691 -0.94164,0.93985 -0.27404,0.21013 -0.38742,0.25181 -0.55835,0.56438 -0.0317,0.0581 -0.0235,0.13043 -0.0408,0.19431 -0.12646,0.46668 -0.33677,0.90575 -0.52717,1.34795 -0.54314,1.15947 -1.11834,2.29921 -1.70107,3.43941 -0.4784,0.93604 -1.44339,2.78682 -1.83981,3.71933 -0.28559,0.67185 -0.50935,1.36831 -0.76402,2.05247 0.0266,0.57398 -0.21408,1.22825 0.0799,1.72192 0.4183,0.70241 1.37237,0.57775 2.01689,0.72858 0.20341,0.0476 0.55773,-0.002 0.59255,0.20404 0.0565,0.33447 -0.38042,0.59713 -0.39987,0.93577 -0.0172,0.29935 0.19824,0.56598 0.29736,0.84896 1.1322,-0.34578 2.25234,-0.73387 3.3966,-1.03735 0.0883,-0.0234 -0.13118,0.12707 -0.19819,0.18911 -0.0543,0.0502 -0.0921,0.15575 -0.16553,0.14759 -0.0781,-0.009 -0.10807,-0.11549 -0.14901,-0.18251 -0.18065,-0.29572 -0.27457,-0.64028 -0.50022,-0.91134 -1.71256,-2.64068 -3.56379,-5.18671 -5.43736,-7.71476 -1.11413,0.14337 -2.30629,0.86411 -3.3424,0.43014 -3.59951,-1.50765 4.51011,-1.15938 1.72076,-0.56329 -1.07263,0.22921 -2.22819,0.10036 -3.2541,0.48845 -0.22007,0.0833 0.24264,0.40322 0.36396,0.60482 0.98882,-0.36648 1.97764,-0.73298 2.96645,-1.09948 0.63758,-0.73278 0.99444,-1.08738 1.38109,-2.29271 0.0498,-0.15524 -0.43237,-0.26631 -0.31218,-0.37644 0.45707,-0.41883 1.06775,-0.64796 1.65306,-0.85229 4.79199,-1.67279 -4.89498,3.47089 4.57599,-2.08189 -0.14741,-0.13377 -0.35545,-0.22217 -0.44222,-0.4013 -0.24608,-0.50804 0.0331,-1.5906 -0.53107,-1.60803 -1.02411,-0.0316 -1.95092,0.78695 -2.67796,1.50889 -0.19312,0.19177 0.40177,0.36794 0.58867,0.56577 0.18976,0.20087 0.37384,0.40818 0.54,0.62896 0.10653,0.14155 0.18362,0.30301 0.27543,0.45451 -0.42315,1.34721 -0.11926,-0.0558 2.28141,-0.23521 0.52948,-0.0396 -0.98354,0.40056 -1.47133,0.61029 -2.16053,0.92896 -4.28358,1.94182 -6.42182,2.9201 -0.72983,0.32164 -1.47791,0.60472 -2.18949,0.96496 -0.43045,0.21792 -0.78494,0.57556 -1.2285,0.76538 -0.0833,0.0356 0.0336,-0.17833 0.0596,-0.26509 0.11444,-0.38248 0.3144,-0.73088 0.51391,-1.07366 0.004,-0.006 0.54061,-0.87265 0.54433,-0.87916 0.047,-0.0823 0.0744,-0.17522 0.12468,-0.2556 0.29023,-0.46383 0.73364,-0.7977 1.15954,-1.12678 2.04286,-1.37767 -0.26975,0.21442 -0.40956,0.13448 -0.3866,-0.22108 0.7729,-0.44269 1.15921,-0.66429 0.75257,-0.43167 3.26613,-1.66416 4.32464,-2.67328 0.0383,-0.0365 -0.004,-0.10561 -0.006,-0.15843 -0.0256,-0.60677 -0.0454,-1.21369 -0.0649,-1.82069 -0.0269,-0.91795 -0.055,-1.83683 -0.0136,-2.75482 0,0 -2.70028,1.40863 -2.70028,1.40863 z" />
  <path
     style="fill:#00ff00;stroke-width:0.204818"
     id="path2293"
     d="m 257.51145,416.19907 c -0.0231,-0.61536 0.02,-1.23073 0.0507,-1.84506 0.004,-0.4766 0.0387,-0.94975 0.083,-1.42394 0.0627,-0.50664 0.13931,-1.01109 0.20891,-1.51684 0.0838,-0.53183 0.10489,-1.06936 0.11528,-1.60666 0.005,-0.43849 0.0184,-0.87689 0.0235,-1.31536 -0.009,-0.351 -0.0409,-0.70488 -0.091,-1.05283 -0.0636,-0.45158 -0.0953,-0.90687 -0.13626,-1.36093 -0.0273,-0.43965 -0.0493,-0.87792 -0.0956,-1.31594 -0.0821,-0.50813 -0.12008,-1.02075 -0.13977,-1.53456 -0.0405,-0.46944 -0.0949,-0.93721 -0.16825,-1.40263 -0.0967,-0.68283 -0.19299,-1.36581 -0.26136,-2.05216 -0.0932,-0.67688 -0.1487,-1.35799 -0.23626,-2.03554 -0.0855,-0.57462 -0.10179,-1.15545 -0.14762,-1.73354 -0.0361,-0.52252 -0.0577,-1.04507 -0.10306,-1.56682 -0.0477,-0.41216 -0.0305,-0.82868 -0.0721,-1.24071 -0.0462,-0.38178 -0.0639,-0.76565 -0.0742,-1.14979 -0.007,-0.38579 -0.0132,-0.77159 -0.009,-1.15747 0.0117,-0.35019 -0.0218,-0.70424 0.0235,-1.05237 0.0406,-0.22999 0.0701,-0.46031 0.081,-0.6935 -10e-4,-0.19326 0.009,-0.3818 0.0391,-0.57203 0.0289,-0.17141 0.041,-0.34434 0.0467,-0.51782 0.0149,-0.14866 0.0585,-0.29414 0.0777,-0.44456 0.0216,-0.1326 0.0216,-0.25488 -0.0135,-0.38375 -0.0763,-0.19218 -0.23866,-0.25512 -0.42792,-0.28552 -0.15294,-0.0197 -0.30723,-0.0178 -0.46066,-0.0267 -0.0546,0.0102 -0.0953,0.006 -0.14287,0.0358 0,0 -2.40081,1.925 -2.40081,1.925 v 0 c 0.0529,-0.0222 0.0585,-0.0591 0.11093,-0.0827 0.10914,-0.0953 0.26364,-0.0713 0.39918,-0.0732 0.069,0 0.18273,0.0217 0.20977,-0.0384 0.01,0.0918 -0.0202,0.18821 -0.0261,0.28013 -0.0277,0.15673 -0.0667,0.3118 -0.062,0.47231 -0.01,0.16412 -0.0286,0.32749 -0.0515,0.4903 -0.0223,0.19605 -0.0117,0.39339 -0.0266,0.5901 -0.018,0.22726 -0.0501,0.45326 -0.0635,0.68094 -0.008,0.35517 0.004,0.71049 -7e-5,1.06573 0.005,0.38893 -0.001,0.77798 0.0124,1.16676 0.016,0.3882 0.0434,0.77579 0.082,1.16243 0.0266,0.41131 0.0453,0.82331 0.092,1.23307 0.0496,0.51604 0.0726,1.0341 0.12164,1.55024 0.0363,0.58333 0.0602,1.16816 0.16517,1.74465 0.0908,0.67377 0.15755,1.35034 0.24201,2.02489 0.0814,0.69058 0.1775,1.37951 0.23817,2.07241 0.0505,0.46387 0.0959,0.92811 0.13963,1.39266 0.0407,0.51383 0.0977,1.02612 0.14793,1.53907 0.0281,0.43833 0.051,0.87727 0.10341,1.31362 0.0414,0.46168 0.0524,0.92553 0.11307,1.38543 0.0368,0.33902 0.0701,0.67989 0.0702,1.02114 0.006,0.43008 0.02,0.86014 0.008,1.2903 -0.0169,0.52499 -0.046,1.05008 -0.12205,1.57036 -0.0792,0.51434 -0.17336,1.02669 -0.22595,1.54474 -0.0379,0.4753 -0.0612,0.95029 -0.053,1.42739 -0.007,0.62847 -0.0211,1.25796 -0.10294,1.88206 0,0 2.70879,-1.38019 2.70879,-1.38019 z" />
  <path
     style="fill:#00ff00;stroke-width:0.204818"
     id="path2295"
     d="m 258.01416,388.66622 c -0.0288,-0.0725 -0.0211,-0.15218 -0.0347,-0.22788 -0.004,-0.0229 -0.0103,-0.0455 -0.0154,-0.0682 -0.05,-0.14088 -0.0654,-0.2906 -0.10998,-0.43258 -0.0312,-0.10722 -0.0781,-0.21051 -0.12944,-0.30954 -0.0655,-0.0913 -0.13283,-0.1817 -0.2075,-0.26571 -0.0643,-0.0766 -0.14699,-0.13393 -0.22256,-0.19863 -0.0702,-0.0396 -0.1429,-0.0742 -0.21493,-0.11063 -0.0122,-0.006 -0.0242,-0.0131 -0.0367,-0.0188 -0.0586,-0.0272 0.0151,0.0121 -0.0471,-0.0213 -0.003,-0.002 -0.0488,-0.0273 -0.052,-0.0284 -0.005,-0.002 -0.0111,2e-5 -0.0167,4e-5 -0.026,-0.005 -0.0478,-0.0236 -0.0731,-0.0299 -0.006,-0.002 -0.012,0.002 -0.0179,10e-5 -0.011,-0.002 -0.0383,-0.0123 -0.048,-0.0156 -0.008,-0.003 -0.0163,-0.008 -0.0251,-0.009 -0.004,0 -0.006,0.005 -0.01,0.005 -0.0142,0 -0.0241,-0.01 -0.0374,-0.0123 -0.007,-0.002 -0.0134,0 -0.0201,0.002 -0.0111,-0.003 -0.0222,-0.007 -0.0333,-0.01 -0.011,-0.003 -0.0218,-0.008 -0.0331,-0.0104 -0.008,-0.002 -0.0166,0 -0.0248,0 -0.0392,-0.006 -0.0177,-0.009 -0.0571,-0.0182 -0.109,-0.0254 0.0605,0.0238 -0.0568,-0.0117 -0.01,-0.003 -0.0188,-0.008 -0.0288,-0.0109 -0.007,-0.002 -0.0141,1.4e-4 -0.021,-0.002 -0.009,-0.002 -0.0165,-0.006 -0.0247,-0.009 -0.009,-0.004 -0.0166,-0.009 -0.0257,-0.0113 -0.003,0 -0.007,0.002 -0.0101,0.003 -0.009,-0.004 -0.0173,-0.008 -0.0259,-0.0119 -0.006,-0.003 -0.051,-0.0252 -0.0569,-0.0269 -0.009,-0.002 -0.0178,0 -0.0266,-0.002 -0.0101,-0.002 -0.0196,-0.006 -0.0297,-0.008 -0.0835,-0.015 0.0347,0.0156 -0.0684,-0.0133 -0.0125,-0.004 -0.0247,-0.009 -0.0374,-0.0117 -0.009,-0.002 -0.0195,-0.002 -0.029,-0.004 -0.0894,-0.0197 0.0282,0.002 -0.0584,-0.0201 -0.006,-0.002 -0.0133,0 -0.02,-0.002 -0.0127,-0.004 -0.0253,-0.009 -0.0379,-0.0129 -0.0185,-0.006 -0.0585,-0.0203 -0.0771,-0.0238 -0.0101,-0.002 -0.0207,0 -0.0309,-0.002 -0.034,-0.005 -0.0679,-0.0168 -0.10107,-0.0256 -0.0378,-0.007 -0.0765,-0.018 -0.11511,-0.0188 -0.009,-1.9e-4 -0.0179,0.003 -0.0269,0.003 -0.0224,0 -0.045,-0.004 -0.067,-0.008 -0.0628,-0.0104 -0.12565,-0.0206 -0.18882,-0.0287 -0.0495,-0.007 -0.0994,-0.004 -0.14911,-0.004 -0.0159,0.005 -0.0338,-0.005 -0.0497,0 -0.006,0.002 -0.008,0.009 -0.014,0.0115 -0.0189,0.007 -0.0454,-0.002 -0.0636,-0.007 -0.0505,-0.008 -0.10799,-0.0327 -0.15894,-0.0182 -0.002,0.003 -0.006,0.006 -0.006,0.01 2.1e-4,0.0278 0.0465,0.0767 0.0556,0.0916 0.59583,0.98216 -0.55647,0.48365 -2.55247,1.64628 0.0121,-0.007 0.0225,-0.0188 0.0363,-0.022 0.0598,-0.0139 0.18694,0.042 0.24691,0.0649 0.0614,0.0184 0.12538,0.0255 0.18727,0.0415 0.0534,0.0137 0.10503,0.0352 0.15712,0.0532 0.1191,0.0186 0.23727,0.0338 0.3539,0.0648 0.11859,0.0205 0.2396,0.0248 0.35966,0.0325 0.12126,0.01 0.24102,-0.0152 0.36087,-0.0291 0.11742,-0.0135 0.1173,-0.0121 0.23642,-0.0205 0.0894,-0.004 0.17873,-0.002 0.2673,0.0117 0.024,0.003 0.0704,0.01 0.0933,0.0238 0.0146,0.009 0.0258,0.0226 0.0386,0.034 0.85969,-0.5439 1.74349,-1.05142 2.57908,-1.63165 0.0361,-0.0251 -0.0366,-0.0803 -0.0604,-0.11726 -0.0484,-0.0752 -0.1237,-0.12024 -0.20061,-0.16057 -0.0467,-0.0201 -0.0864,-0.0597 -0.13478,-0.0764 -0.006,-0.002 -0.0135,0 -0.02,-0.002 -0.008,-0.002 -0.0147,-0.005 -0.0221,-0.008 -0.008,-0.004 -0.0159,-0.009 -0.0246,-0.0109 -0.005,-0.002 -0.0114,0.002 -0.0169,0 -0.0237,-0.006 -0.0451,-0.0184 -0.0683,-0.0258 -0.0373,-0.0121 -0.0466,-0.0127 -0.0853,-0.0205 -0.0694,-0.0162 -0.13974,-0.0197 -0.21062,-0.0222 -0.0626,0.002 -0.12497,-0.005 -0.18749,-0.003 -0.0676,0.006 -0.13523,0.002 -0.20285,0.002 -0.0729,0.002 -0.14545,0.004 -0.21837,0.002 -0.0723,-0.003 -0.14477,0.002 -0.2171,0.003 -0.11431,0.004 -0.22864,0.008 -0.34293,0.0127 -0.11366,0.008 -0.22663,-0.005 -0.33959,-0.0147 -0.0146,0 -0.0292,0 -0.0438,0 -0.0148,-0.002 -0.0295,-0.004 -0.0444,-0.005 -0.0121,0 -0.0243,0.002 -0.0364,0.002 -0.0367,0 -0.0377,-0.002 -0.0733,-0.008 -0.87684,0.51104 -1.75369,1.02208 -2.63053,1.53312 0.02,0.11352 0.0489,0.22502 0.0728,0.33769 0,0 2.63173,-1.35446 2.63173,-1.35446 v 0 c 0.006,-0.0324 0.02,-0.15327 0.0781,-0.15063 0.0182,0 0.0318,0.0176 0.0477,0.0265 -0.86316,0.49975 -1.7235,1.0044 -2.58948,1.49925 -0.01,0.006 0.01,-0.0209 0.0174,-0.0294 0.0215,-0.0245 0.0326,-0.021 0.0615,-0.034 0.0606,-0.0273 0.007,-0.0125 0.0769,-0.0264 0.11583,-0.0284 0.23878,-0.0199 0.35708,-0.0201 0.10265,0.005 0.20537,0.009 0.30806,0.0127 0.0694,0.002 0.13885,0.007 0.20822,0.003 0.072,-0.002 0.14368,-0.002 0.21559,0.002 0.0663,0 0.13264,-0.004 0.19887,0.002 0.0641,0.002 0.12809,-0.006 0.19223,-0.003 0.0656,-0.002 0.13118,-0.003 0.19677,-0.007 0.0275,0 0.0689,-0.009 0.0953,0.002 0.01,0.004 0.0179,0.0125 0.0281,0.0162 0.007,0.002 0.0141,0.002 0.0212,0.002 0.009,0.002 0.0174,0.004 0.0257,0.008 0.0107,0.004 0.0201,0.0119 0.0313,0.0143 0.008,0.002 0.0165,-0.002 0.0247,-0.002 0.032,-0.002 0.0635,0.004 0.0939,0.0139 0.0369,0.016 0.0289,0.0143 0.0632,0.0235 0.004,0.002 0.0129,0.007 0.0122,0.003 -0.002,-0.0119 -0.0114,-0.0211 -0.0172,-0.0316 -0.52936,-0.96205 -0.13417,-0.023 2.5234,-1.67422 -10e-4,0.0197 0.005,0.0415 -0.005,0.0588 -0.0168,0.0315 -0.089,0.0481 -0.11394,0.0539 -0.10306,0.024 -0.20887,0.0244 -0.31401,0.0282 -0.17559,-0.002 -0.35355,-0.019 -0.52735,0.0125 -0.0721,0.005 -0.14184,0 -0.21314,-0.0125 -0.0167,-0.003 -0.0329,-0.008 -0.0497,-0.01 -0.0151,-0.002 -0.0303,0 -0.0455,0 -0.11597,-0.003 -0.22979,-0.0186 -0.34275,-0.0449 -0.11305,-0.009 -0.21916,-0.0385 -0.32575,-0.0765 -0.10412,-0.0226 0.0245,0.007 -0.0981,-0.0274 -0.085,-0.0238 -0.13458,-0.031 -0.19938,-0.10034 -0.8903,0.50816 -1.80541,0.97508 -2.67088,1.52442 -0.0168,0.0106 0.0839,0.16988 0.10464,0.19808 0.01,0.0129 0.021,0.0244 0.0323,0.0359 0.0371,0.0374 0.0291,0.0295 0.0704,0.0523 0.0107,0.003 0.021,0.008 0.032,0.009 0.0367,0.005 0.0758,-0.008 0.11264,-0.006 0.0262,0.002 0.0503,0.006 0.0748,0.016 0.012,0.005 0.0225,0.0137 0.035,0.0172 0.0163,0.005 0.0345,-0.005 0.0508,0 0.0481,0 0.0963,0.002 0.14434,-0.003 0.0604,-0.004 0.12112,-0.008 0.18169,-0.004 0.0308,0.003 0.0385,0.003 0.0691,0.0102 0.0137,0.003 0.0266,0.009 0.0405,0.0115 0.0305,0.004 0.0633,-0.006 0.094,-0.002 0.0324,0 0.0635,0.002 0.0951,0.01 0.0128,0.003 0.0247,0.01 0.0377,0.0121 0.0183,0.003 0.0376,-0.004 0.0558,0.002 0.0625,0.01 -0.0243,-0.006 0.0572,0.0197 0.009,0.003 0.0197,0.002 0.0294,0.004 0.0352,0.007 0.0658,0.0259 0.1022,0.0259 0.071,0.0162 -0.0152,-0.006 0.0608,0.0219 0.008,0.003 0.0174,0.003 0.0257,0.006 0.009,0.003 0.0171,0.01 0.0265,0.0119 0.0118,0.003 0.0242,-0.007 0.0361,-0.002 0.0526,0.0123 -0.0301,-0.009 0.0501,0.0242 0.007,0.003 0.0154,0.002 0.023,0.003 0.0301,0.006 0.0536,0.0278 0.0853,0.0264 0.0397,0.01 0.0197,0.003 0.0598,0.0211 0.0806,0.0239 -0.0326,-0.0212 0.055,0.0109 0.0113,0.004 0.0213,0.0115 0.0328,0.0147 0.008,0.002 0.0157,0.002 0.0236,0.002 0.0521,0.009 -0.0189,-0.006 0.0427,0.0178 0.005,0.002 0.0105,0 0.0156,0 0.0245,0.005 0.0415,0.0287 0.0677,0.021 0.0161,0 0.0242,0 0.0401,0.005 0.009,0.003 0.0163,0.009 0.0254,0.0115 0.0177,0.004 0.0401,-0.009 0.0571,0.005 0.0444,0.023 0.0264,0.006 0.068,0.0125 0.0437,0.007 0.0145,0.007 0.0641,0.0203 0.0106,0.003 0.0216,0.003 0.0325,0.004 0.0261,0.007 0.0672,0.0184 0.0912,0.0305 0.0311,0.0158 0.0564,0.0438 0.0926,0.0491 0.0698,0.016 0.13075,0.0647 0.19141,0.10157 0.0603,0.0668 0.1261,0.12979 0.17225,0.20795 0.0231,0.0377 0.0461,0.0771 0.0637,0.11775 0.0204,0.0472 0.029,0.0989 0.0531,0.14474 0.0503,0.11575 0.0955,0.23251 0.0874,0.36169 -0.004,0.10104 -0.004,0.20425 -0.0312,0.30229 0,0 2.7302,-1.3911 2.7302,-1.3911 z" />
  <path
     style="fill:#00ff00;stroke-width:0.204818"
     id="path2297"
     d="m 256.66222,412.21505 c -0.0402,-0.0446 -0.0879,-0.0834 -0.12051,-0.13385 -0.22503,-0.3485 -0.30345,-0.78116 -0.3916,-1.17764 -0.1546,-0.69542 -0.11034,-0.48196 -0.20214,-1.20216 -0.0412,-0.68227 -0.0566,-1.36843 -0.008,-2.05079 0.0202,-0.28056 0.0334,-0.36017 0.067,-0.62596 0.0487,-0.29547 0.0192,-0.1554 0.0856,-0.42086 0,0 -2.49574,1.24843 -2.49574,1.24843 v 0 c 0.0291,0.24353 0.0126,0.11502 0.0501,0.38546 0.018,0.0816 0.0341,0.16367 0.0539,0.24489 0.11029,0.45172 0.0521,0.14488 0.16364,0.6547 0.0319,0.14583 0.0597,0.29252 0.0889,0.4389 0.12712,0.63842 0.0806,0.38991 0.18875,1.07022 0.0589,0.63852 0.0725,0.62369 0.0719,1.26713 -4.1e-4,0.38057 -0.007,0.69916 -0.0805,1.07142 -0.0255,0.1284 -0.0594,0.2561 -0.10863,0.3774 -0.0282,0.0696 -0.0811,0.12645 -0.12158,0.18966 0,0 2.75858,-1.33695 2.75858,-1.33695 z" />
  <path
     style="fill:#00ff00;stroke-width:0.204818"
     id="path2299"
     d="m 254.91963,430.88951 c 0.0618,0.1336 0.0561,0.28404 0.0475,0.42748 -0.005,0.033 -0.009,0.0661 -0.0144,0.099 -0.005,0.0296 -0.0125,0.0588 -0.0172,0.0885 -0.002,0.0133 -0.0158,0.14015 -0.019,0.15658 -0.009,0.0441 -0.0241,0.0827 -0.0391,0.12459 -0.0353,0.0637 -0.0685,0.12908 -0.11417,0.18634 -0.0472,0.0591 -0.10494,0.11063 -0.16024,0.16183 -0.0143,0.0156 -0.0284,0.0312 -0.0428,0.0468 -0.0498,0.0539 -0.0324,0.0271 -0.0669,0.0932 -0.0182,0.0348 -0.0426,0.0956 -0.0767,0.12001 -0.0185,0.0133 -0.0432,0.0143 -0.0648,0.0214 0.83232,-0.48747 1.65479,-0.99212 2.49695,-1.46238 0.0196,-0.0109 0.0162,0.0501 0.002,0.0672 -0.0116,0.0137 -0.0387,0.004 -0.0535,-0.006 -0.0964,-0.0664 -0.14981,-0.24475 -0.18722,-0.34643 -0.0626,-0.22253 -0.11357,-0.45006 -0.12348,-0.6818 -0.007,-0.15762 0.002,-0.26874 0.009,-0.42755 0.006,-0.0837 0.0123,-0.1673 0.0171,-0.25105 0.021,-0.36288 0.004,-0.21809 0.0372,-0.59391 10e-4,-0.0135 0.0597,-0.6046 0.0611,-0.62371 0.007,-0.098 0.0101,-0.19628 0.0151,-0.29443 -0.002,-0.33031 -0.009,-0.66218 -0.0591,-0.98937 -0.0278,-0.18305 -0.0401,-0.21678 -0.0835,-0.39588 -0.0177,-0.0661 -0.0353,-0.13223 -0.0532,-0.1983 -0.0436,-0.1615 -0.0711,-0.256 -0.10972,-0.41941 -0.0509,-0.21528 -0.0895,-0.43327 -0.13341,-0.65003 -0.0572,-0.21334 -0.0895,-0.43194 -0.12708,-0.64923 -0.0112,-0.0649 -0.0248,-0.12947 -0.0344,-0.19466 -0.0199,-0.13495 -0.0209,-0.19007 -0.0293,-0.32161 -0.005,-0.0999 -0.0109,-0.20115 0.004,-0.30063 0.004,-0.027 0.0402,-0.0936 0.0163,-0.0803 -2.73766,1.52907 -3.34555,0.82049 -2.49592,1.68359 0.0695,0.11228 0.32567,0.52278 0.3615,0.60022 0.0673,0.14544 0.11545,0.29926 0.16317,0.45224 0.0507,0.16273 0.0962,0.3274 0.13194,0.49408 0.0678,0.31669 0.0913,0.60886 0.12562,0.92901 0.0155,0.13025 0.0326,0.26033 0.0467,0.39074 0.0348,0.32293 0.0144,0.33805 0.0978,0.64474 0.0267,0.0982 0.0642,0.19317 0.0961,0.2898 0.11669,0.35378 0.0493,0.16336 0.17035,0.48923 0.11445,0.21491 0.0836,0.16928 0.21111,0.36345 0.0308,0.0469 0.0605,0.0946 0.0946,0.13915 0.0824,0.10755 0.18507,0.1973 0.28086,0.29232 0.14762,0.13245 0.20839,0.31337 0.24189,0.50299 0.0287,0.10677 0.007,0.21205 0.005,0.31929 -4.1e-4,0.0264 0.001,0.0529 0.002,0.0793 -0.001,0.0279 -0.002,0.0558 -0.003,0.0837 -0.003,0.0298 -0.006,0.0596 -0.01,0.0894 0,0 2.63205,-1.3151 2.63205,-1.3151 v 0 c 0.002,-0.031 0.003,-0.062 0.005,-0.093 0.004,-0.048 0.0132,-0.14276 0.0125,-0.19288 -0.002,-0.12584 -0.0427,-0.24693 -0.0664,-0.36939 -0.037,-0.10794 -0.0739,-0.21805 -0.1278,-0.31909 -0.0621,-0.11636 -0.14652,-0.21885 -0.23714,-0.31382 -0.0339,-0.0259 -0.0671,-0.0527 -0.10168,-0.0777 -0.0683,-0.0494 -0.15093,-0.10019 -0.21804,-0.15097 -0.14217,-0.10757 -0.26601,-0.23345 -0.36903,-0.37947 -0.0998,-0.14685 -0.17199,-0.24098 -0.24732,-0.40597 -0.0767,-0.16793 -0.13082,-0.37238 -0.19257,-0.5452 -0.36089,-1.0101 0.16072,0.51002 -0.23149,-0.64391 -0.10946,-0.32623 -0.1817,-0.51692 -0.25996,-0.85964 -0.049,-0.21463 -0.14994,-0.80068 -0.16705,-1.02397 -0.005,-0.0667 -0.005,-0.65822 -0.005,-0.7898 0.0156,-0.0761 0.11748,-0.26022 0.0467,-0.22831 -0.91529,0.41275 -1.7676,0.95335 -2.6628,1.40802 -0.0213,0.0109 -1e-5,-0.0649 0.0237,-0.0676 0.0228,-0.002 0.0217,0.0405 0.031,0.0615 0.0182,0.0411 0.0629,0.16119 0.0766,0.19748 0.0414,0.1018 0.0734,0.17574 0.10788,0.28216 0.0194,0.0599 0.0357,0.12076 0.0528,0.18135 0.0587,0.20756 0.1169,0.41594 0.15039,0.6294 0.082,0.4333 0.17835,0.86358 0.26322,1.29632 0.0926,0.41717 0.22538,0.82951 0.2376,1.25986 0.002,0.22507 0.008,0.33358 -0.007,0.56087 -0.0272,0.41156 -0.11858,0.81286 -0.1953,1.21701 -0.0117,0.0855 -0.0267,0.17059 -0.0352,0.25647 -0.0335,0.34076 -0.006,0.6775 0.0902,1.00634 0.0301,0.11568 0.0574,0.22675 0.0933,0.34079 0.0283,0.09 0.0738,0.23151 0.13108,0.30901 0.60849,0.8228 4.1347,0.20933 2.74135,-1.38215 0.0276,-0.0522 0.0432,-0.0884 0.0798,-0.13414 0.0522,-0.0653 0.12218,-0.1147 0.16406,-0.18863 0.0881,-0.14751 0.16543,-0.30406 0.20811,-0.47109 0.021,-0.16059 0.0185,-0.32269 0.0163,-0.48435 0.0119,-0.1717 0.0232,-0.3458 0.0749,-0.511 0,0 -2.73086,1.39143 -2.73086,1.39143 z" />
</svg>
