<?xml version="1.0" encoding="UTF-8" standalone="no"?>
<svg
   id="Layer_2"
   viewBox="0 0 3618.6 3618.6"
   width="3618.6"
   height="3618.6"
   version="1.1"
   sodipodi:docname="react-1.svg"
   inkscape:version="1.1.1 (3bf5ae0d25, 2021-09-20, custom)"
   xmlns:inkscape="http://www.inkscape.org/namespaces/inkscape"
   xmlns:sodipodi="http://sodipodi.sourceforge.net/DTD/sodipodi-0.dtd"
   xmlns="http://www.w3.org/2000/svg"
   xmlns:svg="http://www.w3.org/2000/svg">
  <defs
     id="defs17" />
  <sodipodi:namedview
     id="namedview15"
     pagecolor="#ffffff"
     bordercolor="#666666"
     borderopacity="1.0"
     inkscape:pageshadow="2"
     inkscape:pageopacity="0.0"
     inkscape:pagecheckerboard="0"
     showgrid="false"
     inkscape:zoom="0.18847067"
     inkscape:cx="1806.6471"
     inkscape:cy="1785.4237"
     inkscape:window-width="1920"
     inkscape:window-height="1080"
     inkscape:window-x="0"
     inkscape:window-y="0"
     inkscape:window-maximized="1"
     inkscape:current-layer="Layer_2" />
  <style
     id="style2">.st0{fill:#222}.st1{fill:#00d8ff}.st2{fill:none;stroke:#00d8ff;stroke-width:144.7456;stroke-miterlimit:10}</style>
  <path
     class="st0"
     d="M0 0h3618.6v3618.6H0z"
     id="path4"
     style="fill:#000000" />
  <circle
     class="st1"
     cx="1806.5"
     cy="1807.1"
     r="302.6"
     id="circle6" />
  <path
     class="st2"
     d="M1806.5 1191.9c406.2 0 783.6 58.3 1068.1 156.2 342.8 118 553.6 296.9 553.6 458.9 0 168.8-223.4 358.9-591.5 480.8-278.3 92.2-644.6 140.4-1030.2 140.4-395.4 0-769.7-45.2-1051.2-141.4-356.1-121.7-570.6-314.2-570.6-479.8 0-160.7 201.3-338.2 539.3-456 285.6-99.5 672.3-159.1 1082.5-159.1z"
     id="path8" />
  <path
     class="st2"
     d="M1271 1501.3c202.9-351.9 442-649.7 669-847.2 273.5-238 533.8-331.2 674.1-250.3 146.2 84.3 199.3 372.8 121 752.7-59.2 287.2-200.4 628.5-393.1 962.6-197.5 342.5-423.7 644.2-647.6 840-283.3 247.7-557.3 337.3-700.7 254.6-139.2-80.3-192.4-343.3-125.7-695 56.4-297.4 198-662.1 403-1017.4z"
     id="path10" />
  <path
     class="st2"
     d="M1271.5 2119.8c-203.5-351.6-342.1-707.4-399.9-1002.7-69.6-355.8-20.4-627.9 119.8-709 146.1-84.6 422.5 13.5 712.5 271 219.3 194.7 444.4 487.5 637.6 821.3 198.1 342.2 346.6 688.8 404.3 980.5 73.1 369.2 13.9 651.3-129.4 734.2-139.1 80.5-393.5-4.7-664.9-238.2-229.2-197.3-474.5-502.1-680-857.1z"
     id="path12" />
  <path
     style="fill:#00ff00;stroke-width:5.30587"
     d="m 2437.8967,3310.9472 c -168.9645,-23.7313 -372.6342,-137.6527 -577.7306,-323.1501 l -47.2926,-42.7733 -42.9072,38.6709 c -189.8522,171.1077 -375.4374,279.1431 -544.3114,316.8622 -56.9642,12.7233 -147.3938,13.6466 -192.474,1.9652 -85.44056,-22.1399 -153.50479,-80.0531 -196.08409,-166.8404 -13.57856,-27.6766 -29.56614,-67.0345 -35.52792,-87.4621 -43.99379,-150.7419 -41.02022,-365.9429 8.17454,-591.604 7.3161,-33.5596 13.75572,-64.2484 14.31029,-68.1975 0.65962,-4.697 -15.50591,-12.2865 -46.74446,-21.9458 -163.6236,-50.5944 -329.78333,-131.939 -442.34186,-216.5512 -113.47862,-85.3039 -186.79527,-181.6093 -210.84074,-276.9507 -12.23459,-48.5108 -7.90333,-118.1347 10.31925,-165.8796 65.82695,-172.4724 288.38209,-330.8212 613.87364,-436.7734 42.20837,-13.7395 77.42833,-25.5188 78.26661,-26.1762 0.83827,-0.6575 -4.50421,-28.3654 -11.8722,-61.5731 -48.97043,-220.71093 -56.60244,-420.45661 -21.89619,-573.06702 68.39112,-300.7296 292.22503,-380.1519 615.42283,-218.3686 123.4434,61.79209 226.6143,134.57544 365.9129,258.13833 l 35.1029,31.13751 35.1234,-32.8563 c 114.8523,-107.43866 241.8296,-199.07123 354.9013,-256.1128 116.1107,-58.57466 202.8196,-83.39189 292.0343,-83.58421 95.864,-0.20664 153.0638,22.24069 214.9533,84.35561 59.9082,60.1264 95.3711,136.43284 120.1021,258.42643 7.7478,38.21836 9.5356,73.06041 9.4947,185.03673 -0.054,146.9323 -4.8185,195.21072 -32.7287,331.61662 -7.4638,36.4778 -13.8707,69.2688 -14.2376,72.869 -0.4011,3.9338 36.4197,19.1082 92.2799,38.03 298.6698,101.1698 504.264,241.6579 583.7443,398.8883 99.0681,195.9799 -36.4774,409.9507 -365.7098,577.3054 -65.3806,33.2342 -179.7453,79.8465 -256.5963,104.5826 -25.5345,8.2189 -46.4263,17.5475 -46.4263,20.7305 0,3.1828 4.7017,27.3297 10.4483,53.6597 26.661,122.1559 37.6664,222.1669 37.8836,344.2646 0.5167,290.3512 -90.4429,474.3224 -259.2827,524.4155 -35.3188,10.4788 -105.8232,14.7429 -147.3435,8.9112 z M 1183.8102,3167.5667 c 141.5295,-26.4473 332.8914,-137.9803 497.7811,-290.1257 l 34.1201,-31.483 -58.0589,-66.004 c -65.4788,-74.4392 -141.4248,-168.5668 -197.4035,-244.6622 l -37.7511,-51.3176 -28.1188,-3.0085 c -173.8907,-18.6054 -282.7188,-34.2288 -384.2378,-55.1611 l -48.37868,-9.9753 -11.14656,48.5249 c -69.8125,303.9189 -48.15921,573.3455 53.90934,670.78 35.1325,33.5374 105.374,46.2441 179.2848,32.4325 z m 1376.4644,-3.5052 c 126.8113,-43.209 178.8538,-306.3189 124.1887,-627.8579 -10.5629,-62.1304 -23.3605,-121.1856 -26.9115,-124.1846 -1.0815,-0.9133 -40.779,6.193 -88.2169,15.7917 -92.778,18.773 -251.9536,42.3827 -324.7951,48.1751 -51.7567,4.1157 -42.5435,-3.4126 -109.4077,89.4 -54.97,76.3026 -133.0305,174.4701 -187.3695,235.6324 l -39.6432,44.6212 26.1989,23.266 c 193.899,172.193 328.6231,256.125 471.0512,293.4612 48.9318,12.8271 119.9534,13.6041 154.9051,1.6949 z m -693.079,-481.5639 c 32.3004,-37.6744 97.7022,-119.7253 144.0993,-180.7821 2.6713,-3.5154 -65.4416,-5.3059 -201.8406,-5.3059 h -205.8724 l 16.4007,21.2235 c 38.3886,49.6768 109.9519,135.9812 148.6664,179.2893 34.7024,38.8202 43.0019,45.5583 49.4862,40.1767 4.2851,-3.5563 26.3623,-28.1269 49.0604,-54.6015 z m 195.77,-331.2351 c 63.7233,-3.9811 51.802,6.1193 118.4146,-100.328 97.6495,-156.0446 243.4002,-420.4592 243.4002,-441.5662 0,-26.0127 -178.1053,-341.8914 -271.2662,-481.1043 l -36.079,-53.914 -41.3179,-4.4505 c -53.8489,-5.8004 -485.2949,-5.7772 -539.2497,0.026 l -41.6273,4.4796 -49.1405,75.1084 c -83.0494,126.9363 -154.5772,250.7749 -221.9925,384.3434 l -38.2464,75.7769 49.123,96.6637 c 57.4481,113.0456 127.0998,233.6779 205.6716,356.2102 l 56.1512,87.5674 43.4971,1.7831 c 80.4075,3.2961 467.4165,2.8529 522.6618,-0.5986 z m -752.0892,-33.9259 c -32.9697,-50.1966 -130.4984,-216.635 -160.0535,-273.1409 -18.6661,-35.6872 -35.5351,-64.9357 -37.4869,-64.9969 -9.3239,-0.2918 -113.85748,285.9923 -109.0251,298.5852 2.8494,7.4256 110.2987,28.4059 221.344,43.2191 53.7952,7.1762 75.936,10.2683 92.0472,12.8551 2.4752,0.3974 -0.5963,-7.0373 -6.8257,-16.5216 z m 1089.0351,-1.1545 c 93.9525,-14.3222 124.8385,-19.8244 182.4034,-32.4939 l 38.1525,-8.397 -26.2684,-76.0454 c -28.352,-82.0769 -81.514,-213.9638 -89.4421,-221.8919 -2.9706,-2.9706 -11.5585,8.3539 -21.9428,28.9352 -25.4872,50.5149 -82.6709,151.4732 -134.8573,238.0919 -25.4937,42.3143 -47.4302,78.7258 -48.7478,80.9144 -3.6603,6.0802 7.8958,5.0344 100.7025,-9.1133 z M 893.51031,2159.4872 c 31.68201,-92.8901 75.09237,-204.3478 111.34189,-285.8745 13.4671,-30.2882 24.4857,-58.4213 24.4857,-62.5182 0,-4.0968 -15.2055,-42.5881 -33.79002,-85.5361 -36.71924,-84.8566 -88.94095,-221.318 -112.11702,-292.9748 -8.02268,-24.8049 -16.24115,-46.9314 -18.26332,-49.17 -2.02212,-2.2386 -35.74949,6.3936 -74.94969,19.1826 -203.18843,66.2901 -347.26807,144.543 -445.89652,242.1763 -66.38431,65.7146 -87.02835,104.78 -86.90332,164.4502 0.0754,35.9852 2.07271,43.6092 20.49248,78.2214 54.62947,102.6531 192.79411,206.7602 382.742,288.3963 68.50312,29.4413 182.90469,68.7992 195.22045,67.1621 7.32491,-0.9737 16.20687,-20.6823 37.63737,-83.5153 z m 1939.03829,55.782 c 336.3067,-115.1939 551.4783,-295.2498 521.8178,-436.6576 -21.6523,-103.2275 -167.4305,-225.2433 -377.776,-316.1968 -79.2187,-34.2543 -213.7718,-80.1684 -223.72,-76.3409 -3.8968,1.4993 -15.1422,27.5 -24.9897,57.7795 -23.001,70.7241 -66.1789,182.0863 -110.2939,284.4638 l -34.8369,80.846 33.2333,73.0241 c 42.4597,93.2976 82.3067,192.6453 114.0756,284.4168 13.7982,39.8591 26.8654,72.471 29.0382,72.471 2.1729,0 35.2261,-10.7126 73.4516,-23.8059 z M 1141.075,1593.086 c 40.9972,-76.4024 105.8076,-188.6733 142.9318,-247.6002 17.9567,-28.5024 31.8714,-52.462 30.9217,-53.2434 -6.5678,-5.4041 -312.12,48.3805 -312.12,54.9407 0,13.9509 104.0029,297.6351 109.1175,297.6351 0.7645,0 13.8815,-23.2795 29.149,-51.7322 z m 1401.7604,-46.4263 c 40.5839,-103.6572 69.6948,-193.7817 64.2652,-198.9586 -6.3041,-6.0106 -125.3612,-29.3665 -226.0936,-44.3538 -45.962,-6.8383 -83.5673,-12.0122 -83.5673,-11.4975 0,0.5147 29.2485,49.7063 64.9968,109.3144 35.7483,59.6082 81.5073,139.0757 101.6866,176.5945 42.7119,79.4129 34.1147,82.8096 78.7123,-31.099 z M 1060.6432,1190.7233 c 78.4765,-15.1529 219.2369,-36.1514 300.5878,-44.8413 l 58.641,-6.264 61.9252,-82.9958 c 59.5477,-79.80965 130.2855,-166.6048 197.4646,-242.28886 l 31.7908,-35.81544 -31.7908,-28.83689 C 1533.6782,617.62404 1377.412,517.57464 1248.6835,474.00334 c -49.5817,-16.78215 -65.9678,-19.79681 -118.7734,-21.85159 -54.7906,-2.132 -64.1672,-1.13157 -88.8289,9.47763 -84.20501,36.224 -128.45635,159.64043 -128.40749,358.1268 0.0265,117.29438 11.05408,214.35672 37.66804,331.61662 14.07534,62.0155 13.04532,60.0984 29.9663,55.7723 7.99791,-2.0448 44.14875,-9.4346 80.33515,-16.4218 z m 1599.8025,-19.5439 c 65.7616,-295.58578 48.0617,-571.13576 -43.2076,-672.64915 -39.0144,-43.3934 -56.6977,-50.24123 -128.7873,-49.87274 -55.7961,0.28521 -65.8535,1.96024 -117.5319,19.57452 -99.5386,33.92715 -200.9839,91.67564 -308.9918,175.89598 -70.3563,54.86104 -151.8156,128.87733 -151.8156,137.94402 0,3.65867 6.254,12.4405 13.8977,19.5152 36.9653,34.21336 209.4448,249.26217 253.4202,315.96617 l 14.4327,21.8923 59.4211,6.3475 c 90.2455,9.6402 226.2416,30.7124 306.1438,47.436 101.9996,21.3485 92.9317,23.2894 103.0187,-22.0498 z m -663.413,-66.4983 c -49.3315,-65.6805 -178.4728,-219.09181 -187.4614,-222.69174 -5.7046,-2.28465 -91.7303,96.30676 -166.5313,190.85664 l -40.7169,51.4668 h 204.7273 204.7273 z"
     id="path1004" />
  <path
     style="fill:#00ff00;stroke-width:5.30587"
     d="m 1756.2414,2102.7654 c -31.4316,-5.2556 -81.2117,-24.9836 -109.7807,-43.5064 -37.4941,-24.3095 -84.0166,-73.8163 -103.8963,-110.561 -19.2456,-35.5727 -35.7186,-101.045 -35.6202,-141.5732 0.3351,-138.0686 102.7816,-263.9562 238.159,-292.6526 184.2594,-39.0582 360.6425,105.1338 361.2332,295.3056 0.1348,43.4828 -18.2154,108.0729 -42.1506,148.3617 -24.1512,40.6525 -76.189,91.4125 -115.4244,112.5903 -51.4727,27.783 -134.914,41.6678 -192.52,32.0356 z"
     id="path1080" />
</svg>
